<?xml version="1.0" encoding="UTF-8"?>
<svg xmlns="http://www.w3.org/2000/svg" version="1.1" viewBox="0 0 16 16">
  <!-- Generator: Adobe Illustrator 29.5.1, SVG Export Plug-In . SVG Version: 2.1.0 Build 141)  -->
  <path d="M0,3.3c0-.9.4-1.7,1-2.4C1.6.3,2.5-.1,3.4-.1h9.3c.9,0,1.7.4,2.4,1,.6.6,1,1.5,1,2.4v9.3c0,.9-.4,1.7-1,2.4-.6.6-1.5,1-2.4,1H3.3c-.9,0-1.7-.4-2.4-1-.6-.6-1-1.5-1-2.4V3.3h.1ZM3.3,1.3c-.5,0-1,.2-1.4.6s-.6.9-.6,1.4v4h6V1.3H3.3ZM8.7,1.3v6h6V3.3c0-.5-.2-1-.6-1.4-.4-.4-.9-.6-1.4-.6h-4ZM14.7,8.7h-6v6h4c.5,0,1-.2,1.4-.6.4-.4.6-.9.6-1.4v-4ZM7.3,14.7v-6H1.3v4c0,.5.2,1,.6,1.4s.9.6,1.4.6h4Z"/>
</svg>