<?xml version="1.0" encoding="UTF-8"?>
<svg id="Layer_1" xmlns="http://www.w3.org/2000/svg" version="1.1" viewBox="0 0 24 24">
  <!-- Generator: Adobe Illustrator 29.5.1, SVG Export Plug-In . SVG Version: 2.1.0 Build 141)  -->
  <path d="M19.1,7.6v1c-.7,0-1.8-.5-3.1-1.6-1.3-1-2.4-2.2-3.2-3.5,0-.1-.2-.3-.2-.4v21h-1V3.1c0,.1-.2.3-.2.4-.8,1.3-1.9,2.5-3.2,3.5-1.3,1.1-2.3,1.6-3.1,1.6v-1c.2,0,.9-.1,2.5-1.4,1.2-1,2.2-2.1,2.9-3.3.7-1.2,1.1-2.2,1.1-2.9h1c0,.7.4,1.7,1.1,2.9.7,1.2,1.7,2.3,2.9,3.3,1.5,1.2,2.2,1.4,2.5,1.4Z"/>
</svg>