<?xml version="1.0" encoding="UTF-8"?>
<svg xmlns="http://www.w3.org/2000/svg" version="1.1" viewBox="0 0 24 24">
  <!-- Generator: Adobe Illustrator 29.5.1, SVG Export Plug-In . SVG Version: 2.1.0 Build 141)  -->
  <path d="M16.5,19h-1c0-.7.5-1.8,1.6-3.1,1-1.3,2.2-2.4,3.5-3.2.1,0,.3-.2.4-.2H0v-1h21c-.1,0-.3-.2-.4-.2-1.3-.8-2.5-1.9-3.5-3.2-1.1-1.3-1.6-2.3-1.6-3.1h1c0,.2.1.9,1.4,2.5,1,1.2,2.1,2.2,3.3,2.9,1.2.7,2.2,1.1,2.9,1.1v1c-.7,0-1.7.4-2.9,1.1-1.2.7-2.3,1.7-3.3,2.9-1.2,1.5-1.4,2.2-1.4,2.5Z"/>
</svg>