<?xml version="1.0" encoding="UTF-8"?>
<!DOCTYPE svg PUBLIC "-//W3C//DTD SVG 1.1//EN" "http://www.w3.org/Graphics/SVG/1.1/DTD/svg11.dtd">
<svg xmlns="http://www.w3.org/2000/svg" version="1.1" width="512px" height="512px" style="shape-rendering:geometricPrecision; text-rendering:geometricPrecision; image-rendering:optimizeQuality; fill-rule:evenodd; clip-rule:evenodd" xmlns:xlink="http://www.w3.org/1999/xlink">
<g><path style="opacity:0.98" fill="#000000" d="M 69.5,-0.5 C 193.5,-0.5 317.5,-0.5 441.5,-0.5C 457.493,3.99395 467.66,14.3273 472,30.5C 472.667,180.5 472.667,330.5 472,480.5C 467.551,497.116 457.051,507.45 440.5,511.5C 435.5,511.5 430.5,511.5 425.5,511.5C 418.278,509.724 411.611,506.558 405.5,502C 355.652,453.984 305.652,406.151 255.5,358.5C 205.348,406.151 155.348,453.984 105.5,502C 99.8497,505.99 93.8497,509.157 87.5,511.5C 81.5,511.5 75.5,511.5 69.5,511.5C 53.5067,507.006 43.3401,496.673 39,480.5C 38.3333,330.5 38.3333,180.5 39,30.5C 43.3401,14.3273 53.5067,3.99395 69.5,-0.5 Z M 82.5,43.5 C 197.833,43.5 313.167,43.5 428.5,43.5C 428.667,182.834 428.5,322.167 428,461.5C 370.955,405.953 313.455,350.953 255.5,296.5C 197.545,350.953 140.045,405.953 83,461.5C 82.5,322.167 82.3333,182.834 82.5,43.5 Z"/></g>
</svg>
