<svg width="16" height="19" viewBox="0 0 16 19" xmlns="http://www.w3.org/2000/svg">
<path d="M4 11.8846C3.79333 11.8846 3.61333 11.8079 3.46 11.6546C3.30667 11.5012 3.23 11.3212 3.23 11.1146C3.23 10.9079 3.30667 10.7282 3.46 10.5756C3.61333 10.4229 3.79333 10.3462 4 10.3456C4.20667 10.3449 4.38667 10.4216 4.54 10.5756C4.69333 10.7296 4.77 10.9096 4.77 11.1156C4.77 11.3216 4.69333 11.5012 4.54 11.6546C4.38667 11.8079 4.20667 11.8846 4 11.8846ZM8 11.8846C7.79333 11.8846 7.61333 11.8079 7.46 11.6546C7.30667 11.5012 7.23 11.3212 7.23 11.1146C7.23 10.9079 7.30667 10.7282 7.46 10.5756C7.61333 10.4229 7.79333 10.3462 8 10.3456C8.20667 10.3449 8.38667 10.4216 8.54 10.5756C8.69333 10.7296 8.77 10.9096 8.77 11.1156C8.77 11.3216 8.69333 11.5012 8.54 11.6546C8.38667 11.8079 8.20667 11.8846 8 11.8846ZM12 11.8846C11.7933 11.8846 11.6133 11.8079 11.46 11.6546C11.3067 11.5012 11.23 11.3212 11.23 11.1146C11.23 10.9079 11.3067 10.7282 11.46 10.5756C11.6133 10.4229 11.7933 10.3462 12 10.3456C12.2067 10.3449 12.3867 10.4216 12.54 10.5756C12.6933 10.7296 12.77 10.9096 12.77 11.1156C12.77 11.3216 12.6933 11.5012 12.54 11.6546C12.3867 11.8079 12.2067 11.8846 12 11.8846ZM1.616 18.9996C1.15533 18.9996 0.771 18.8456 0.463 18.5376C0.155 18.2296 0.000666667 17.8452 0 17.3846V4.61456C0 4.15456 0.154333 3.77056 0.463 3.46256C0.771667 3.15456 1.156 3.00023 1.616 2.99956H3.385V1.30756C3.385 1.15223 3.436 1.02356 3.538 0.921561C3.64 0.819561 3.76833 0.768562 3.923 0.768562C4.07767 0.768562 4.20633 0.819561 4.309 0.921561C4.41167 1.02356 4.46267 1.15223 4.462 1.30756V2.99956H11.616V1.26956C11.616 1.12689 11.6637 1.00756 11.759 0.911561C11.8543 0.815561 11.9733 0.767895 12.116 0.768562C12.2587 0.769228 12.3773 0.816895 12.472 0.911561C12.5667 1.00623 12.6147 1.12523 12.616 1.26856V2.99956H14.385C14.845 2.99956 15.2293 3.15389 15.538 3.46256C15.8467 3.77123 16.0007 4.15556 16 4.61556V17.3846C16 17.8446 15.846 18.2289 15.538 18.5376C15.23 18.8462 14.8453 19.0002 14.384 18.9996H1.616ZM1.616 17.9996H14.385C14.5383 17.9996 14.6793 17.9356 14.808 17.8076C14.9367 17.6796 15.0007 17.5382 15 17.3836V8.61556H1V17.3846C1 17.5379 1.064 17.6789 1.192 17.8076C1.32 17.9362 1.461 18.0002 1.615 17.9996M1 7.61456H15V4.61456C15 4.46123 14.936 4.32023 14.808 4.19156C14.68 4.06289 14.5387 3.99889 14.384 3.99956H1.616C1.462 3.99956 1.32067 4.06356 1.192 4.19156C1.06333 4.31956 0.999333 4.4609 1 4.61556V7.61456Z"/>
</svg>
