<?xml version="1.0" encoding="UTF-8"?>
<svg id="Layer_1" xmlns="http://www.w3.org/2000/svg" version="1.1" viewBox="0 0 16 16">
  <!-- Generator: Adobe Illustrator 29.5.1, SVG Export Plug-In . SVG Version: 2.1.0 Build 141)  -->
  <path d="M15.3,1.7c-.4-.4-1-.7-1.7-.7h-3.2c-.4,0-.7.1-1,.4l-1.5,1.5L1.2,6.7c-.5.3-.9.7-1.1,1.2-.2.5-.2,1.1,0,1.6l1.5,3.9c.1.3.3.6.5.8.2.2.5.4.8.5.3.1.6.2.9.2s0,0,.1,0c.3,0,.6,0,.9-.2l1.5-.8c.4.3.9.5,1.4.5s1.2-.2,1.7-.7l6.1-6.1c.3-.3.4-.6.4-1v-3.2c0-.6-.2-1.2-.7-1.7ZM4.4,13.8c-.2,0-.3.1-.5.1-.2,0-.4,0-.5,0-.2,0-.3-.2-.4-.3-.1-.1-.2-.3-.3-.5l-1.5-3.9c-.1-.3-.1-.6,0-.9.1-.3.3-.5.6-.7l3.5-1.9-1.9,1.9c-.4.4-.7,1-.7,1.7s.2,1.2.7,1.7l2.3,2.3-1.2.6ZM14.9,6.6c0,.1,0,.2-.1.3l-6.1,6.1c-.5.5-1.3.5-1.8,0l-2.9-2.9c-.2-.2-.4-.6-.4-.9s.1-.7.4-.9l6.1-6.1c0,0,.2-.1.3-.1h3.2c.3,0,.7.1.9.4.2.2.4.6.4.9v3.2ZM13.2,2.9c-.5,0-.9.4-.9.9s.4.9.9.9.9-.4.9-.9-.4-.9-.9-.9Z"/>
</svg>