<?xml version="1.0" encoding="UTF-8"?>
<svg xmlns="http://www.w3.org/2000/svg" version="1.1" viewBox="0 0 16 16">
  <!-- Generator: Adobe Illustrator 29.5.1, SVG Export Plug-In . SVG Version: 2.1.0 Build 141)  -->
  <path d="M8,9.3H1.5c-.3,0-.7-.1-.9-.4-.2-.3-.4-.6-.4-.9V1.3c0-.4.1-.7.4-.9s.6-.4.9-.4h6.5c.3,0,.7.1.9.4.2.3.4.6.4.9v6.7c0,.4-.1.7-.4.9-.2.3-.6.4-.9.4ZM1.5,1.3v6.7h6.5V1.3H1.5ZM14.5,5.3v2.7h-2.6v-2.7h2.6ZM14.5,4h-2.6c-.3,0-.7.1-.9.4s-.4.6-.4.9v2.7c0,.4.1.7.4.9.2.3.6.4.9.4h2.6c.3,0,.7-.1.9-.4.2-.3.4-.6.4-.9v-2.7c0-.4-.1-.7-.4-.9s-.6-.4-.9-.4ZM14.5,12v2.7h-2.6v-2.7h2.6ZM14.5,10.7h-2.6c-.3,0-.7.1-.9.4-.2.3-.4.6-.4.9v2.7c0,.4.1.7.4.9s.6.4.9.4h2.6c.3,0,.7-.1.9-.4s.4-.6.4-.9v-2.7c0-.4-.1-.7-.4-.9-.2-.3-.6-.4-.9-.4ZM8,12v2.7h-2.6v-2.7h2.6ZM8,10.7h-2.6c-.3,0-.7.1-.9.4-.2.3-.4.6-.4.9v2.7c0,.4.1.7.4.9.2.3.6.4.9.4h2.6c.3,0,.7-.1.9-.4.2-.3.4-.6.4-.9v-2.7c0-.4-.1-.7-.4-.9-.2-.3-.6-.4-.9-.4Z"/>
</svg>