<?xml version="1.0" encoding="UTF-8"?>
<svg id="Layer_1" xmlns="http://www.w3.org/2000/svg" version="1.1" viewBox="0 0 16 16">
  <!-- Generator: Adobe Illustrator 29.5.1, SVG Export Plug-In . SVG Version: 2.1.0 Build 141)  -->
  <defs>
    <style>
      .st0 {
        fill-rule: evenodd;
      }
    </style>
  </defs>
  <path class="st0" d="M11.3,3.7c-.3,0-.6-.3-.6-.6v-.9c-.6,0-1.3,0-2,0h-1.5c-.8,0-1.5,0-2,0v.9c0,.3-.3.6-.6.6s-.6-.3-.6-.6v-.8c-.7,0-1.2.3-1.5.6-.4.4-.6,1.1-.7,2.3h12.2c0-1.1-.2-1.8-.7-2.3-.3-.3-.8-.5-1.5-.6v.8c0,.3-.3.6-.6.6ZM14.1,6.3c0,.4,0,.8,0,1.3v.7c0,.3.3.6.6.6s.6-.3.6-.6v-.7c0-3,0-4.4-1-5.5-.6-.6-1.3-.8-2.3-.9v-.6c0-.3-.3-.6-.6-.6s-.6.3-.6.6v.6c-.6,0-1.3,0-2,0h-1.5c-.8,0-1.5,0-2,0v-.6c0-.3-.3-.6-.6-.6s-.6.3-.6.6v.6c-1,.1-1.7.4-2.3.9C.7,3.2.7,4.7.7,7.6v1.5c0,3,0,4.4,1,5.5s2.5,1,5.5,1,.6-.3.6-.6-.3-.6-.6-.6c-2.6,0-4,0-4.7-.7-.7-.7-.7-2-.7-4.7v-1.5c0-.5,0-.9,0-1.3h12.3ZM11.7,16c-1.9,0-3.5-1.6-3.5-3.5s1.6-3.5,3.5-3.5,3.5,1.6,3.5,3.5-1.6,3.5-3.5,3.5ZM11.7,10c-1.3,0-2.4,1.1-2.4,2.4s1.1,2.4,2.4,2.4,2.4-1.1,2.4-2.4-1.1-2.4-2.4-2.4ZM12.1,13.6c.1.1.3.2.4.2s.3,0,.4-.2c.2-.2.2-.6,0-.8l-.6-.6v-1.3c0-.3-.3-.6-.6-.6s-.6.3-.6.6v1.5c0,.1,0,.3.2.4l.7.7Z"/>
</svg>