<svg width="28" height="29" viewBox="0 0 28 29" xmlns="http://www.w3.org/2000/svg">
<path d="M13.9999 19.1582L9.87109 15.0305L10.6971 14.1905L13.4166 16.91V6.81836H14.5833V16.91L17.3016 14.1917L18.1288 15.0305L13.9999 19.1582ZM7.71859 23.1517C7.18114 23.1517 6.73275 22.972 6.37342 22.6127C6.01409 22.2534 5.83403 21.8046 5.83325 21.2664V18.4395H6.99992V21.2664C6.99992 21.446 7.07459 21.6109 7.22392 21.761C7.37325 21.9111 7.53775 21.9858 7.71742 21.985H20.2824C20.4613 21.985 20.6258 21.9104 20.7759 21.761C20.926 21.6117 21.0007 21.4468 20.9999 21.2664V18.4395H22.1666V21.2664C22.1666 21.8038 21.9869 22.2522 21.6276 22.6115C21.2683 22.9709 20.8195 23.1509 20.2813 23.1517H7.71859Z"/>
</svg>
