<?xml version="1.0" encoding="UTF-8"?>
<svg id="Layer_1" xmlns="http://www.w3.org/2000/svg" version="1.1" viewBox="0 0 16 16">
  <!-- Generator: Adobe Illustrator 29.5.1, SVG Export Plug-In . SVG Version: 2.1.0 Build 141)  -->
  <defs>
    <style>
      .st0 {
        fill-rule: evenodd;
      }
    </style>
  </defs>
  <path class="st0" d="M8.5,7.6l3.1,3.1-.7.7-3.4-3.4V3.2h1v4.4ZM8,16C3.6,16,0,12.4,0,8S3.6,0,8,0s8,3.6,8,8-3.6,8-8,8ZM8,15c1.9,0,3.7-.7,5-2.1,1.3-1.3,2.1-3.1,2.1-5s-.7-3.7-2.1-5c-1.3-1.3-3.1-2.1-5-2.1s-3.7.7-5,2.1c-1.3,1.3-2.1,3.1-2.1,5s.7,3.7,2.1,5c1.3,1.3,3.1,2.1,5,2.1Z"/>
</svg>