<?xml version="1.0" encoding="UTF-8"?>
<svg xmlns="http://www.w3.org/2000/svg" version="1.1" viewBox="0 0 16 16">
  <!-- Generator: Adobe Illustrator 29.5.1, SVG Export Plug-In . SVG Version: 2.1.0 Build 141)  -->
  <path d="M10.5,13.4c-.5,0-1-.2-1.3-.5s-.5-.8-.5-1.3.2-.9.5-1.3c.4-.4.8-.5,1.3-.5s.9.2,1.3.5c.4.4.5.8.5,1.3s-.2,1-.5,1.3-.8.5-1.3.5ZM2.4,16c-.4,0-.7-.1-1-.4-.3-.3-.4-.6-.4-1V3.4c0-.4.1-.7.4-1s.6-.4,1-.4h1.6V.5c0,0,0-.2,0-.3C4.2,0,4.3,0,4.4,0S4.6,0,4.7.1c0,0,0,.2,0,.3v1.5h6.3V.4c0,0,0-.2.1-.3C11.4,0,11.5,0,11.6,0S11.8,0,11.9.1c0,0,.1.2.1.3v1.5h1.6c.4,0,.7.1,1,.4s.4.6.4,1v11.2c0,.4-.1.7-.4,1-.3.3-.6.4-1,.4H2.4ZM2.4,15.1h11.2c.1,0,.3,0,.4-.2.1-.1.2-.2.2-.4v-7.7H1.9v7.7c0,.1,0,.3.2.4,0,.1.2.2.4.2h0ZM1.9,6h12.3v-2.6c0,0,0-.3-.2-.4-.1,0-.2-.2-.4-.2H2.4c0,0-.3,0-.4.2-.1,0-.2.2-.2.4v2.6h.1Z"/>
</svg>