<svg width="25" height="25" viewBox="0 0 25 25" fill="none" xmlns="http://www.w3.org/2000/svg">
<path d="M20.3125 14.0625C20.3125 15.6077 19.8543 17.1181 18.9959 18.4029C18.1374 19.6877 16.9173 20.689 15.4897 21.2803C14.0622 21.8716 12.4913 22.0263 10.9759 21.7249C9.46039 21.4234 8.06833 20.6794 6.97573 19.5868C5.88314 18.4942 5.13907 17.1021 4.83762 15.5866C4.53617 14.0712 4.69089 12.5003 5.2822 11.0728C5.87351 9.64524 6.87485 8.42509 8.15961 7.56664C9.44437 6.70819 10.9548 6.25 12.5 6.25H15.625V10.1562L20.3125 5.46875L15.625 0.78125V4.6875H12.5C10.6458 4.6875 8.83325 5.23733 7.29153 6.26747C5.74982 7.29761 4.54821 8.76179 3.83863 10.4748C3.12906 12.1879 2.94341 14.0729 3.30514 15.8915C3.66688 17.71 4.55976 19.3805 5.87088 20.6916C7.182 22.0027 8.85246 22.8956 10.671 23.2574C12.4896 23.6191 14.3746 23.4334 16.0877 22.7239C17.8007 22.0143 19.2649 20.8127 20.295 19.271C21.3252 17.7293 21.875 15.9167 21.875 14.0625H20.3125Z" fill="#425E72"/>
<path d="M15.3438 17.2887C14.9984 17.2983 14.6558 17.226 14.3438 17.0778C14.0649 16.9392 13.8257 16.7322 13.6484 16.4762C13.4627 16.1782 13.3379 15.8462 13.2813 15.4996C13.1842 15.0691 13.1396 14.6284 13.1484 14.1871C13.1411 13.7459 13.1857 13.3054 13.2813 12.8746C13.3518 12.5258 13.4898 12.1941 13.6875 11.8981C13.8648 11.6421 14.104 11.4351 14.3828 11.2965C14.6948 11.1482 15.0375 11.0759 15.3828 11.0856C15.7074 11.0609 16.0329 11.1197 16.3283 11.2565C16.6237 11.3932 16.8791 11.6034 17.0703 11.8668C17.4702 12.5609 17.6601 13.356 17.6172 14.1559C17.6601 14.9557 17.4702 15.7509 17.0703 16.4449C16.883 16.7259 16.6245 16.9521 16.3211 17.1003C16.0178 17.2486 15.6805 17.3136 15.3438 17.2887ZM15.3438 16.3356C15.5023 16.3522 15.662 16.3199 15.8017 16.2431C15.9413 16.1663 16.0542 16.0486 16.125 15.9059C16.2968 15.5372 16.3772 15.1325 16.3594 14.7262V13.6481C16.3771 13.2442 16.2967 12.8421 16.125 12.4762C16.0386 12.3424 15.9201 12.2323 15.7802 12.1561C15.6403 12.0799 15.4835 12.04 15.3242 12.04C15.1649 12.04 15.0082 12.0799 14.8683 12.1561C14.7284 12.2323 14.6098 12.3424 14.5234 12.4762C14.3544 12.8428 14.2767 13.2449 14.2969 13.6481V14.7262C14.277 15.1319 14.3546 15.5364 14.5234 15.9059C14.5965 16.0556 14.7155 16.1781 14.8631 16.2554C15.0106 16.3327 15.1791 16.3608 15.3438 16.3356ZM9.85938 13.609C10.1368 13.6365 10.4147 13.5615 10.6406 13.3981C10.7193 13.3342 10.782 13.253 10.8241 13.1609C10.8661 13.0687 10.8862 12.9681 10.8828 12.8668V12.8043C10.8886 12.6967 10.8706 12.5891 10.8301 12.4891C10.7896 12.3892 10.7275 12.2994 10.6484 12.2262C10.4664 12.077 10.235 12.0017 10 12.0153C9.75512 12.0104 9.51394 12.0755 9.30469 12.2028C9.0889 12.3364 8.90704 12.5182 8.77344 12.734L8.04688 12.0856C8.15237 11.9452 8.26722 11.8121 8.39062 11.6871C8.51769 11.5658 8.65941 11.4608 8.8125 11.3746C8.98363 11.2783 9.16784 11.2072 9.35937 11.1637C9.58146 11.1076 9.81004 11.0813 10.0391 11.0856C10.3188 11.0848 10.5973 11.1216 10.8672 11.1949C11.0995 11.2553 11.3173 11.3615 11.5078 11.5074C11.683 11.6384 11.827 11.8065 11.9297 11.9996C12.0249 12.2024 12.073 12.4241 12.0703 12.6481C12.0717 12.8262 12.0426 13.0032 11.9844 13.1715C11.9248 13.3202 11.8402 13.4576 11.7344 13.5778C11.6283 13.6911 11.5043 13.7862 11.3672 13.859C11.2263 13.9304 11.0765 13.983 10.9219 14.0153V14.0621C11.093 14.0927 11.2588 14.148 11.4141 14.2262C11.5644 14.2992 11.6995 14.3999 11.8125 14.5231C11.9249 14.6501 12.0148 14.7954 12.0781 14.9528C12.1429 15.1358 12.1746 15.3289 12.1719 15.5231C12.1777 15.7717 12.1242 16.0181 12.0156 16.2418C11.9106 16.4621 11.7554 16.6548 11.5625 16.8043C11.3546 16.9637 11.1188 17.0829 10.8672 17.1559C10.5759 17.2433 10.2729 17.2855 9.96875 17.2809C9.70575 17.2852 9.44326 17.2564 9.1875 17.1949C8.97942 17.1418 8.77964 17.0603 8.59375 16.9528C8.43343 16.8548 8.28638 16.7367 8.15625 16.6012C8.02925 16.4684 7.91423 16.3246 7.8125 16.1715L8.64844 15.5387C8.71201 15.654 8.78518 15.7638 8.86719 15.8668C8.94957 15.9667 9.04405 16.0559 9.14844 16.1324C9.25587 16.2078 9.37452 16.2658 9.5 16.3043C9.64503 16.3439 9.79502 16.3623 9.94531 16.359C10.2258 16.3806 10.5043 16.2971 10.7266 16.1246C10.8151 16.0389 10.8845 15.9354 10.9303 15.821C10.9761 15.7065 10.9972 15.5837 10.9922 15.4606V15.3981C10.995 15.2787 10.9703 15.1604 10.9202 15.052C10.8701 14.9437 10.7959 14.8482 10.7031 14.7731C10.457 14.6148 10.1672 14.5383 9.875 14.5543H9.28125V13.609H9.85938Z" fill="#425E72"/>
</svg>
