<?xml version="1.0" encoding="utf-8"?>
<!-- Generator: Adobe Illustrator 25.0.1, SVG Export Plug-In . SVG Version: 6.00 Build 0)  -->
<svg version="1.1" id="Layer_1" xmlns="http://www.w3.org/2000/svg" xmlns:xlink="http://www.w3.org/1999/xlink" x="0px" y="0px"
	 viewBox="0 0 256 256" style="enable-background:new 0 0 256 256;" xml:space="preserve">
<path d="M216,120H40c-4.4,0-8,3.6-8,8c0,4.4,3.6,8,8,8h176c4.4,0,8-3.6,8-8C224,123.6,220.4,120,216,120z M40,72h176
	c4.4,0,8-3.6,8-8s-3.6-8-8-8H40c-4.4,0-8,3.6-8,8S35.6,72,40,72z M216,184H40c-4.4,0-8,3.6-8,8s3.6,8,8,8h176c4.4,0,8-3.6,8-8
	S220.4,184,216,184z"/>
</svg>
