<?xml version="1.0" encoding="UTF-8"?>
<svg id="Layer_1" xmlns="http://www.w3.org/2000/svg" version="1.1" viewBox="0 0 16 16">
  <!-- Generator: Adobe Illustrator 29.5.1, SVG Export Plug-In . SVG Version: 2.1.0 Build 141)  -->
  <path d="M8.8,0c.9,0,1.4,0,1.8,0h.2c.2,0,.4,0,.6,0,.9,0,1.4.2,1.9.4.5.2,1,.5,1.4.9.4.4.7.9.9,1.4.2.5.3,1.1.4,1.9,0,.2,0,.4,0,.6v.2c0,.4,0,.9,0,1.8v.6s0,1,0,1c0,.6,0,1.2,0,1.8v.2c0,.2,0,.4,0,.6,0,.9-.2,1.4-.4,1.9-.2.5-.5,1-.9,1.4-.4.4-.9.7-1.4.9-.5.2-1.1.3-1.9.4h-.6s-.2,0-.2,0c-.4,0-.9,0-1.8,0h-.6s-1,0-1,0c-.6,0-1.2,0-1.8,0h-.2c-.2,0-.4,0-.6,0-.9,0-1.4-.2-1.9-.4-.5-.2-1-.5-1.4-.9-.4-.4-.7-.9-.9-1.4-.2-.5-.3-1.1-.4-1.9v-.6s0-.2,0-.2C0,10,0,9.4,0,8.8v-1.6c0-.6,0-1.2,0-1.8v-.2c0-.2,0-.4,0-.6,0-.9.2-1.4.4-1.9.2-.5.5-1,.9-1.4.4-.4.9-.7,1.4-.9.5-.2,1.1-.3,1.9-.4.2,0,.4,0,.6,0h.2C6,0,6.6,0,7.2,0h1.6ZM8,4c-1.1,0-2.1.4-2.8,1.2-.8.8-1.2,1.8-1.2,2.8s.4,2.1,1.2,2.8c.8.8,1.8,1.2,2.8,1.2s2.1-.4,2.8-1.2c.8-.8,1.2-1.8,1.2-2.8s-.4-2.1-1.2-2.8c-.8-.8-1.8-1.2-2.8-1.2ZM8,5.6c.3,0,.6,0,.9.2.3.1.6.3.8.5.2.2.4.5.5.8.1.3.2.6.2.9,0,.3,0,.6-.2.9-.1.3-.3.6-.5.8-.2.2-.5.4-.8.5-.3.1-.6.2-.9.2-.6,0-1.2-.3-1.7-.7-.5-.5-.7-1.1-.7-1.7s.3-1.2.7-1.7c.5-.5,1.1-.7,1.7-.7M12.2,2.8c-.3,0-.5.1-.7.3-.2.2-.3.4-.3.7s.1.5.3.7c.2.2.4.3.7.3s.5-.1.7-.3c.2-.2.3-.4.3-.7s-.1-.5-.3-.7c-.2-.2-.4-.3-.7-.3Z"/>
</svg>