<?xml version="1.0" encoding="UTF-8"?>
<svg xmlns="http://www.w3.org/2000/svg" version="1.1" viewBox="0 0 16 16">
  <!-- Generator: Adobe Illustrator 29.5.1, SVG Export Plug-In . SVG Version: 2.1.0 Build 141)  -->
  <path d="M6.8,11.6h-3.1c-1,0-1.9-.4-2.6-1.1-.7-.6-1.1-1.5-1.1-2.5s.4-1.9,1.1-2.6c.7-.7,1.6-1.1,2.6-1.1h3.1v.9h-3.1c-.8,0-1.4.3-1.9.8-.5.5-.8,1.2-.8,1.9s.3,1.4.8,1.9c.5.5,1.2.8,1.9.8h3.1v.9h0ZM4.9,8.4v-.9h6.2v.9h-6.2ZM9.2,11.6v-.9h3.1c.8,0,1.4-.3,1.9-.8s.8-1.2.8-1.9-.3-1.4-.8-1.9-1.2-.8-1.9-.8h-3.1v-.9h3.1c1,0,1.9.4,2.6,1.1.7.7,1.1,1.6,1.1,2.6s-.4,1.9-1.1,2.6-1.6,1.1-2.6,1.1h-3.1v-.2Z"/>
</svg>