<?xml version="1.0" encoding="UTF-8"?>
<!DOCTYPE svg PUBLIC "-//W3C//DTD SVG 1.1//EN" "http://www.w3.org/Graphics/SVG/1.1/DTD/svg11.dtd">
<svg xmlns="http://www.w3.org/2000/svg" version="1.1" width="512px" height="512px" style="shape-rendering:geometricPrecision; text-rendering:geometricPrecision; image-rendering:optimizeQuality; fill-rule:evenodd; clip-rule:evenodd" xmlns:xlink="http://www.w3.org/1999/xlink">
<g><path style="opacity:0.981" d="M 256.5,-0.5 C 263.833,-0.5 271.167,-0.5 278.5,-0.5C 317.593,11.6581 333.093,37.9914 325,78.5C 311.331,110.589 287.165,123.756 252.5,118C 217.613,105.744 203.113,81.2441 209,44.5C 216.295,20.3688 232.128,5.36882 256.5,-0.5 Z"/></g>
<g><path style="opacity:0.979" d="M 118.5,65.5 C 148.384,67.2262 166.884,82.5596 174,111.5C 176.712,139.25 165.546,159.084 140.5,171C 105.626,180.645 81.4591,168.812 68,135.5C 62.0076,105.653 72.5076,83.8201 99.5,70C 105.785,67.6768 112.118,66.1768 118.5,65.5 Z"/></g>
<g><path style="opacity:0.94" d="M 413.5,101.5 C 428.742,103.23 434.908,111.563 432,126.5C 425.937,138.189 416.771,141.356 404.5,136C 395.717,128.084 394.217,118.918 400,108.5C 403.756,104.539 408.256,102.206 413.5,101.5 Z"/></g>
<g><path style="opacity:0.976" d="M 50.5,219.5 C 80.6376,217.168 99.471,230.502 107,259.5C 109.356,288.641 96.523,307.141 68.5,315C 39.2263,318.037 20.3929,305.537 12,277.5C 8.76374,247.275 21.5971,227.942 50.5,219.5 Z"/></g>
<g><path style="opacity:0.954" d="M 468.5,243.5 C 486.708,241.221 497.375,249.055 500.5,267C 497.335,287.424 485.668,295.091 465.5,290C 452.613,282.674 448.446,271.841 453,257.5C 456.492,250.834 461.659,246.168 468.5,243.5 Z"/></g>
<g><path style="opacity:0.972" d="M 111.5,372.5 C 137.672,370.199 154.505,381.532 162,406.5C 164.361,428.284 155.861,444.117 136.5,454C 111.498,461.413 92.9979,453.58 81,430.5C 73.5366,401.756 83.7032,382.423 111.5,372.5 Z"/></g>
<g><path style="opacity:0.963" d="M 407.5,384.5 C 424.047,382.353 435.88,388.686 443,403.5C 448.126,427.053 438.793,441.053 415,445.5C 399.627,444.12 389.627,436.12 385,421.5C 382.846,403.12 390.346,390.786 407.5,384.5 Z"/></g>
<g><path style="opacity:0.97" d="M 275.5,511.5 C 270.167,511.5 264.833,511.5 259.5,511.5C 238.463,504.454 229.297,489.788 232,467.5C 238.799,446.342 253.299,437.175 275.5,440C 296.658,446.799 305.825,461.299 303,483.5C 298.984,498.015 289.817,507.348 275.5,511.5 Z"/></g>
</svg>
