<?xml version="1.0" encoding="UTF-8"?>
<svg xmlns="http://www.w3.org/2000/svg" version="1.1" viewBox="0 0 16 16">
  <!-- Generator: Adobe Illustrator 29.5.1, SVG Export Plug-In . SVG Version: 2.1.0 Build 141)  -->
  <path d="M14,1.6H2c-.5,0-1,.2-1.4.6-.4.4-.6.9-.6,1.4v8.8c0,.5.2,1,.6,1.4.4.4.9.6,1.4.6h12c.5,0,1-.2,1.4-.6.4-.4.6-.9.6-1.4V3.6c0-.5-.2-1-.6-1.4-.4-.4-.9-.6-1.4-.6ZM2,2.4h12c.3,0,.6,0,.8.3s.4.5.4.8c-2,1.1-4,2.1-6,3.2-.3.2-.6.3-.9.4h-.7c-.2,0-.4-.2-.6-.3-1.1-.6-2.3-1.2-3.4-1.8-.9-.5-1.9-1-2.8-1.5,0-.3.2-.6.4-.8.2-.2.5-.3.8-.3ZM15.2,12.4c0,.3-.1.6-.4.9s-.5.4-.9.4H2c-.3,0-.6-.1-.9-.4-.2-.2-.4-.5-.4-.9v-7.9c1.9,1,3.8,2,5.7,3,.3.2.7.4,1.1.5.6,0,1.1,0,1.6-.3,1.2-.6,2.3-1.2,3.5-1.8.8-.5,1.7-.9,2.5-1.3v7.9h.1Z"/>
</svg>