<?xml version="1.0" encoding="UTF-8"?>
<svg xmlns="http://www.w3.org/2000/svg" version="1.1" viewBox="0 0 16 16">
  <!-- Generator: Adobe Illustrator 29.5.1, SVG Export Plug-In . SVG Version: 2.1.0 Build 141)  -->
  <path d="M15.9,4c0,0-.1-.2-.3-.3h-.6l-3.5,2.1v-1.5c0-.7-.3-1.3-.7-1.8-.5-.5-1.1-.7-1.8-.7H2.5c-.7,0-1.3.3-1.8.7S0,3.6,0,4.3v7.3C0,12.3.3,12.9.7,13.4s1.1.7,1.8.7h6.4c.7,0,1.3-.3,1.8-.7.5-.5.7-1.1.7-1.8v-1.5l3.5,2.1c.1,0,.2,0,.4.1h.3c.1,0,.2-.1.3-.3v-7.9h0ZM10.1,11.7c0,.3-.1.6-.3.8s-.5.3-.8.3H2.5c-.3,0-.6-.1-.8-.3-.2-.2-.3-.5-.3-.8v-7.3c0-.3.1-.6.3-.8s.5-.3.8-.3h6.4c.3,0,.6,0,.8.3s.3.5.3.8v7.3h.1ZM14.6,10.5l-3.2-1.9v-1.1l3.2-1.9v4.9Z"/>
</svg>