<svg width="19" height="19" viewBox="0 0 19 19" fill="none" xmlns="http://www.w3.org/2000/svg">
<g clip-path="url(#clip0_263_2203)">
<path d="M17.125 16.25C17.125 16.25 18.25 16.25 18.25 15.125C18.25 14 17.125 10.625 12.625 10.625C8.125 10.625 7 14 7 15.125C7 16.25 8.125 16.25 8.125 16.25H17.125ZM8.14975 15.125L8.125 15.1205C8.12612 14.8235 8.31287 13.9618 8.98 13.1855C9.601 12.4576 10.6923 11.75 12.625 11.75C14.5566 11.75 15.6479 12.4587 16.27 13.1855C16.9371 13.9618 17.1227 14.8246 17.125 15.1205L17.116 15.1228L17.1003 15.125H8.14975ZM12.625 8.375C13.2217 8.375 13.794 8.13795 14.216 7.71599C14.6379 7.29403 14.875 6.72174 14.875 6.125C14.875 5.52826 14.6379 4.95597 14.216 4.53401C13.794 4.11205 13.2217 3.875 12.625 3.875C12.0283 3.875 11.456 4.11205 11.034 4.53401C10.6121 4.95597 10.375 5.52826 10.375 6.125C10.375 6.72174 10.6121 7.29403 11.034 7.71599C11.456 8.13795 12.0283 8.375 12.625 8.375ZM16 6.125C16 6.56821 15.9127 7.00708 15.7431 7.41656C15.5735 7.82603 15.3249 8.19809 15.0115 8.51149C14.6981 8.82488 14.326 9.07348 13.9166 9.24309C13.5071 9.4127 13.0682 9.5 12.625 9.5C12.1818 9.5 11.7429 9.4127 11.3334 9.24309C10.924 9.07348 10.5519 8.82488 10.2385 8.51149C9.92512 8.19809 9.67652 7.82603 9.50691 7.41656C9.3373 7.00708 9.25 6.56821 9.25 6.125C9.25 5.22989 9.60558 4.37145 10.2385 3.73851C10.8714 3.10558 11.7299 2.75 12.625 2.75C13.5201 2.75 14.3786 3.10558 15.0115 3.73851C15.6444 4.37145 16 5.22989 16 6.125ZM8.053 10.94C7.60273 10.7993 7.13894 10.7061 6.66925 10.6621C6.40529 10.6364 6.14021 10.624 5.875 10.625C1.375 10.625 0.25 14 0.25 15.125C0.25 15.875 0.625 16.25 1.375 16.25H6.118C5.9513 15.8988 5.86813 15.5137 5.875 15.125C5.875 13.9888 6.29913 12.8277 7.10125 11.858C7.37463 11.5272 7.693 11.2179 8.053 10.94ZM5.785 11.75C5.11959 12.7506 4.75995 13.9234 4.75 15.125H1.375C1.375 14.8325 1.5595 13.9663 2.23 13.1855C2.84313 12.47 3.9085 11.7725 5.785 11.7511V11.75ZM1.9375 6.6875C1.9375 5.79239 2.29308 4.93395 2.92601 4.30101C3.55895 3.66808 4.41739 3.3125 5.3125 3.3125C6.20761 3.3125 7.06605 3.66808 7.69899 4.30101C8.33192 4.93395 8.6875 5.79239 8.6875 6.6875C8.6875 7.58261 8.33192 8.44105 7.69899 9.07399C7.06605 9.70692 6.20761 10.0625 5.3125 10.0625C4.41739 10.0625 3.55895 9.70692 2.92601 9.07399C2.29308 8.44105 1.9375 7.58261 1.9375 6.6875ZM5.3125 4.4375C4.71576 4.4375 4.14347 4.67455 3.72151 5.09651C3.29955 5.51847 3.0625 6.09076 3.0625 6.6875C3.0625 7.28424 3.29955 7.85653 3.72151 8.27849C4.14347 8.70045 4.71576 8.9375 5.3125 8.9375C5.90924 8.9375 6.48153 8.70045 6.90349 8.27849C7.32545 7.85653 7.5625 7.28424 7.5625 6.6875C7.5625 6.09076 7.32545 5.51847 6.90349 5.09651C6.48153 4.67455 5.90924 4.4375 5.3125 4.4375Z" fill="#425E72"/>
</g>
<defs>
<clipPath id="clip0_263_2203">
<rect width="18" height="18" fill="white" transform="translate(0.25 0.5)"/>
</clipPath>
</defs>
</svg>
