<?xml version="1.0" encoding="UTF-8"?>
<svg id="Layer_1" xmlns="http://www.w3.org/2000/svg" version="1.1" viewBox="0 0 16 16">
  <!-- Generator: Adobe Illustrator 29.5.1, SVG Export Plug-In . SVG Version: 2.1.0 Build 141)  -->
  <path d="M15,14s1,0,1-1-1-4-5-4-5,3-5,4,1,1,1,1h8ZM7,13h0c0-.3.2-1,.8-1.7.6-.6,1.5-1.3,3.2-1.3s2.7.6,3.2,1.3c.6.7.8,1.5.8,1.7h0s0,0,0,0h-8ZM11,7c.5,0,1-.2,1.4-.6.4-.4.6-.9.6-1.4s-.2-1-.6-1.4c-.4-.4-.9-.6-1.4-.6s-1,.2-1.4.6c-.4.4-.6.9-.6,1.4s.2,1,.6,1.4c.4.4.9.6,1.4.6ZM14,5c0,.4,0,.8-.2,1.1-.2.4-.4.7-.7,1-.3.3-.6.5-1,.7-.4.2-.8.2-1.1.2s-.8,0-1.1-.2c-.4-.2-.7-.4-1-.7-.3-.3-.5-.6-.7-1-.2-.4-.2-.8-.2-1.1,0-.8.3-1.6.9-2.1.6-.6,1.3-.9,2.1-.9s1.6.3,2.1.9c.6.6.9,1.3.9,2.1ZM6.9,9.3c-.4-.1-.8-.2-1.2-.2-.2,0-.5,0-.7,0C1,9,0,12,0,13s.3,1,1,1h4.2c-.1-.3-.2-.7-.2-1,0-1,.4-2,1.1-2.9.2-.3.5-.6.8-.8ZM4.9,10c-.6.9-.9,1.9-.9,3H1c0-.3.2-1,.8-1.7.5-.6,1.5-1.3,3.2-1.3h0ZM1.5,5.5c0-.8.3-1.6.9-2.1.6-.6,1.3-.9,2.1-.9s1.6.3,2.1.9c.6.6.9,1.3.9,2.1s-.3,1.6-.9,2.1c-.6.6-1.3.9-2.1.9s-1.6-.3-2.1-.9c-.6-.6-.9-1.3-.9-2.1ZM4.5,3.5c-.5,0-1,.2-1.4.6s-.6.9-.6,1.4.2,1,.6,1.4.9.6,1.4.6,1-.2,1.4-.6.6-.9.6-1.4-.2-1-.6-1.4-.9-.6-1.4-.6Z"/>
</svg>