<?xml version="1.0" encoding="UTF-8"?>
<svg xmlns="http://www.w3.org/2000/svg" version="1.1" viewBox="0 0 16 16">
  <!-- Generator: Adobe Illustrator 29.5.1, SVG Export Plug-In . SVG Version: 2.1.0 Build 141)  -->
  <path d="M9.6,12.8h-3.2c0,0-.2,0-.3.1,0,0,0,.2,0,.3s0,.2,0,.3c0,0,.2.1.3.1h3.2c.1,0,.2,0,.3-.1,0,0,.1-.2.1-.3s0-.2-.1-.3-.2-.1-.3-.1ZM13.1.6C12.8.2,12.3,0,11.8,0h-7.6C3.7,0,3.2.3,2.9.6c-.3.4-.5.9-.5,1.4v12c0,.5,0,1,.5,1.4.3.4.8.6,1.3.6h7.6c.5,0,1-.3,1.3-.6s.5-.9.5-1.4V2c0-.5-.1-1-.5-1.4ZM12.8,14c0,.3,0,.6-.3.8-.2.2-.5.4-.7.4h-7.6c-.3,0-.6-.2-.7-.4-.2-.2-.3-.5-.3-.8V2c0-.3,0-.6.3-.8.2-.2.5-.4.7-.4h7.6c.3,0,.6.2.7.4.2.2.3.5.3.8v12Z"/>
</svg>