<?xml version="1.0" encoding="utf-8"?>
<!-- Generator: Adobe Illustrator 25.0.1, SVG Export Plug-In . SVG Version: 6.00 Build 0)  -->
<svg version="1.1" id="Layer_1" xmlns="http://www.w3.org/2000/svg" xmlns:xlink="http://www.w3.org/1999/xlink" x="0px" y="0px"
	 viewBox="0 0 32 32" style="enable-background:new 0 0 32 32;" xml:space="preserve">
<path d="M16,0.1c2.9,0,5.6,0.7,8,2.1c2.5,1.4,4.4,3.3,5.8,5.6c1.4,2.4,2.1,5,2.1,7.8c0,2.8-0.7,5.4-2.1,7.8
	c-1.4,2.4-3.4,4.3-5.8,5.6c-2.5,1.4-5.1,2.1-8,2.1s-5.6-0.7-8-2.1c-2.5-1.4-4.4-3.3-5.8-5.6C0.7,21,0,18.4,0,15.6
	c0-2.8,0.7-5.4,2.1-7.8C3.6,5.4,5.5,3.6,8,2.2C10.4,0.8,13.1,0.1,16,0.1z M24,16.7c0.4-0.2,0.7-0.6,0.7-1.1c0-0.5-0.2-0.9-0.7-1.1
	L12.7,8c-0.4-0.3-0.9-0.3-1.3,0c-0.4,0.3-0.7,0.6-0.7,1.1v12.9c0,0.5,0.2,0.9,0.7,1.1c0.2,0.1,0.4,0.2,0.7,0.2
	c0.2,0,0.5-0.1,0.7-0.2L24,16.7z"/>
</svg>
