<svg width="40" height="39" viewBox="0 0 40 39" fill="none" xmlns="http://www.w3.org/2000/svg">
<path d="M19.9997 0.333008C16.2089 0.333008 12.5032 1.45711 9.35125 3.56317C6.19931 5.66923 3.74267 8.66266 2.29199 12.1649C0.841312 15.6672 0.461749 19.5209 1.2013 23.2389C1.94085 26.9569 3.7663 30.372 6.4468 33.0526C9.12731 35.7331 12.5425 37.5585 16.2605 38.2981C19.9784 39.0376 23.8322 38.658 27.3344 37.2074C30.8367 35.7567 33.8301 33.3 35.9362 30.1481C38.0422 26.9962 39.1663 23.2905 39.1663 19.4997C39.1663 16.9827 38.6706 14.4903 37.7074 12.1649C36.7442 9.8395 35.3324 7.72658 33.5526 5.94679C31.7728 4.167 29.6599 2.7552 27.3344 1.79198C25.009 0.828768 22.5167 0.333008 19.9997 0.333008ZM16.1664 28.1247V10.8747L27.6663 19.4997L16.1664 28.1247Z" fill="#425E72"/>
</svg>
