<?xml version="1.0" encoding="UTF-8"?>
<svg xmlns="http://www.w3.org/2000/svg" version="1.1" viewBox="0 0 16 16">
  <!-- Generator: Adobe Illustrator 29.5.1, SVG Export Plug-In . SVG Version: 2.1.0 Build 141)  -->
  <path d="M13.8,14.7H2.2c-.6,0-1.1-.2-1.5-.6C.3,13.7.1,13.2,0,12.6h0V2.8c0-.4.1-.7.4-1,.3-.3.6-.4,1-.5h10.4c.4,0,.7.1,1,.4.3.3.4.6.5,1h0v.6h1.2c.4,0,.7,0,1,.4.3.3.4.6.5,1h0v7.8c0,.6-.2,1.1-.6,1.5-.4.4-.9.6-1.5.7,0,0-.1,0,0,0ZM2.2,13.7h11.7c.3,0,.6-.1.8-.3s.3-.5.4-.8h0v-7.8c0,0,0-.2-.1-.3,0,0-.2-.2-.3-.2h-1.2v7.2c0,.1,0,.2-.1.3,0,0-.2.2-.3.2h0c-.1,0-.2,0-.3-.1,0,0-.2-.2-.2-.3h0V2.8c0,0,0-.2-.1-.3,0,0-.2-.2-.3-.2H1.9c-.1,0-.2,0-.3,0,0,0-.2.2-.2.3h0v9.7c0,.3.1.6.3.8.2.2.5.3.8.4h-.3ZM5.5,7.3c.5,0,.8.4.8.8v2.3c0,.5-.4.8-.8.8h-2.3c-.5,0-.8-.4-.8-.8v-2.3c0-.5.4-.8.8-.8h2.3ZM8.2,10.3h2.3c.1,0,.2,0,.3.1,0,0,.1.2.2.3,0,.1,0,.3-.1.3,0,0-.2.2-.3.2h-2.3c-.1,0-.2,0-.3-.1,0,0,0-.2-.2-.3,0-.1,0-.3,0-.3,0,0,.2-.2.3-.2h0ZM5.3,8.3h-2v2h2v-2ZM8.2,7.3h2.3c.1,0,.2,0,.3,0,0,0,.1.2.2.3,0,0,0,.3-.1.3,0,0-.2.2-.3.2h-2.3c-.1,0-.3,0-.3-.1,0,0-.2-.2-.2-.3s0-.3,0-.4c0,0,.2-.2.3-.2h0ZM2.8,4.3h7.7c.1,0,.2,0,.3,0,0,0,.1.2.2.3,0,0,0,.3-.1.3,0,0-.2.2-.3.2H2.9c0,0-.2,0-.3,0,0,0,0-.2-.2-.3,0,0,0-.3,0-.3,0,0,.2-.2.3-.2h0Z"/>
</svg>