<?xml version="1.0" encoding="UTF-8"?>
<svg xmlns="http://www.w3.org/2000/svg" version="1.1" viewBox="0 0 16 16">
  <!-- Generator: Adobe Illustrator 29.5.1, SVG Export Plug-In . SVG Version: 2.1.0 Build 141)  -->
  <path d="M5.4.7H1.5c-.3,0-.6.1-.8.3-.2.2-.3.5-.3.8v13.1c0,.3,0,.6.3.8.2.2.5.3.8.3h4.3c0,0,.3-.1.4-.2,0-.1.2-.2.2-.4V1.4c0-.1,0-.3-.2-.4,0-.1-.2-.2-.4-.2h-.4ZM1.3,4.2h4.2v8.2H1.3V4.2ZM1.5,1.6h4v1.6H1.3v-1.5h0q0-.1.1-.1h.1ZM5.4,15H1.4v-1.6h4.2v1.5h0q0,.1,0,.1h0ZM15.6,13.8L12.9.9c0-.1,0-.3-.2-.4,0,0-.2-.2-.3-.3C12.3.2,12.1,0,12,0h-.4l-3.8.8c-.3,0-.6.2-.7.5-.2.3-.2.6-.2.9l2.7,12.9c0,.1,0,.3.2.4,0,.1.2.2.3.3.2.1.4.2.6.2h.2l3.8-.8c.3,0,.6-.2.7-.5.2-.3.2-.6.2-.9ZM8.9,7l4.1-.9,1.2,5.5-4.1.9s-1.2-5.5-1.2-5.5ZM8.3,4.4l4.1-.9.3,1.6-4.1.9-.3-1.6ZM8,1.8l3.8-.8h0l.3,1.5-4.1.9-.3-1.5h0q0-.1,0-.1h.2ZM14.6,14.2l-3.8.8h0l-.3-1.5,4.1-.9.3,1.4h0l-.3.2Z"/>
</svg>