<?xml version="1.0" encoding="utf-8"?>
<!-- Generator: Adobe Illustrator 25.0.1, SVG Export Plug-In . SVG Version: 6.00 Build 0)  -->
<svg version="1.1" id="Layer_1" xmlns="http://www.w3.org/2000/svg" xmlns:xlink="http://www.w3.org/1999/xlink" x="0px" y="0px"
	 viewBox="0 0 124 100" style="enable-background:new 0 0 124 100;" xml:space="preserve">
<path d="M56.7,7.1c-7.9,5.4-13.4,11.2-16.3,17.3c-2.9,6-4.4,11.8-4.4,17.3c0,5.9,1.6,11.2,4.8,15.8c3.3,4.5,7,8.4,11,11.7
	c1.8,1.9,2.7,4,2.7,6.3c0,2.7-0.9,5.4-2.7,8.3c-1.8,2.8-4.2,5.4-7.1,7.9c-2.9,2.4-6.4,4.4-10.4,6c-3.8,1.5-7.9,2.3-12.1,2.3
	c-4.1,0-7.6-1-10.4-3.1c-2.7-2.1-4.9-4.6-6.5-7.5c-1.7-2.9-2.9-6-3.7-9.2c-0.8-3.3-1.2-6.3-1.2-8.8c0-7.4,1.3-14.6,4-21.3
	c2.7-6.9,6.3-13.4,11-19.4c4.6-6,10-11.5,16.2-16.5c6.2-5.1,12.6-9.7,19.4-13.7L56.7,7.1z M123.6,6.7c-7.8,5.4-13.3,11.2-16.3,17.3
	c-2.9,6-4.4,11.8-4.4,17.3c0,5.9,1.6,11.2,4.8,15.8c3.3,4.5,7,8.4,11,11.7c1.8,1.9,2.7,4,2.7,6.3c0,2.7-0.9,5.4-2.7,8.3
	c-1.8,2.8-4.2,5.4-7.1,7.9c-2.9,2.4-6.4,4.4-10.4,6c-3.8,1.5-7.9,2.3-12.1,2.3c-4.1,0-7.5-1-10.2-3.1c-2.7-2.1-4.9-4.6-6.7-7.5
	c-1.7-2.9-2.9-6-3.7-9.2c-0.6-3.3-1-6.3-1-8.8c0-7.4,1.3-14.6,4-21.3c2.7-6.9,6.3-13.4,11-19.4s9.9-11.5,16-16.5
	C104.6,8.5,111.1,4,117.9,0L123.6,6.7z"/>
</svg>
