<svg width="25" height="25" viewBox="0 0 25 25" fill="none" xmlns="http://www.w3.org/2000/svg">
<path d="M3.125 14.0625C3.125 15.9167 3.67483 17.7293 4.70497 19.271C5.73511 20.8127 7.19929 22.0143 8.91234 22.7239C10.6254 23.4334 12.5104 23.6191 14.329 23.2574C16.1475 22.8956 17.818 22.0027 19.1291 20.6916C20.4402 19.3805 21.3331 17.71 21.6949 15.8915C22.0566 14.0729 21.8709 12.1879 21.1614 10.4748C20.4518 8.76179 19.2502 7.29761 17.7085 6.26747C16.1668 5.23733 14.3542 4.6875 12.5 4.6875H9.375V0.78125L4.6875 5.46875L9.375 10.1562V6.25H12.5C14.0452 6.25 15.5556 6.70819 16.8404 7.56664C18.1252 8.42509 19.1265 9.64524 19.7178 11.0728C20.3091 12.5003 20.4638 14.0712 20.1624 15.5866C19.8609 17.1021 19.1169 18.4942 18.0243 19.5868C16.9317 20.6794 15.5396 21.4234 14.0241 21.7249C12.5087 22.0263 10.9378 21.8716 9.51028 21.2803C8.08274 20.689 6.86259 19.6877 6.00414 18.4029C5.14569 17.1181 4.6875 15.6077 4.6875 14.0625H3.125Z" fill="#425E72"/>
<path d="M15.3359 17.2887C14.9907 17.2972 14.6483 17.2249 14.3359 17.0778C14.0586 16.937 13.8198 16.7304 13.6406 16.4762C13.4447 16.1793 13.3068 15.8479 13.2344 15.4996C13.1421 15.0683 13.0976 14.6282 13.1016 14.1871C13.0994 13.7462 13.1439 13.3062 13.2344 12.8746C13.3086 12.5269 13.4463 12.1958 13.6406 11.8981C13.8198 11.6438 14.0586 11.4373 14.3359 11.2965C14.6483 11.1493 14.9907 11.0771 15.3359 11.0856C15.6605 11.0609 15.986 11.1197 16.2814 11.2565C16.5768 11.3932 16.8323 11.6034 17.0234 11.8668C17.4263 12.5597 17.6165 13.3557 17.5703 14.1559C17.6165 14.956 17.4263 15.7521 17.0234 16.4449C16.8395 16.7199 16.5873 16.9423 16.2914 17.0902C15.9955 17.2382 15.6662 17.3066 15.3359 17.2887ZM15.3359 16.3356C15.4934 16.345 15.6504 16.3096 15.7886 16.2336C15.9269 16.1575 16.0408 16.0439 16.1172 15.9059C16.3034 15.5403 16.4023 15.1365 16.4062 14.7262V13.6481C16.4234 13.2451 16.3458 12.8437 16.1797 12.4762C16.0924 12.3424 15.973 12.2325 15.8325 12.1564C15.692 12.0803 15.5348 12.0405 15.375 12.0405C15.2152 12.0405 15.058 12.0803 14.9175 12.1564C14.777 12.2325 14.6576 12.3424 14.5703 12.4762C14.4042 12.8437 14.3266 13.2451 14.3438 13.6481V14.7262C14.3282 15.1316 14.4057 15.5351 14.5703 15.9059C14.6448 16.0421 14.7561 16.1546 14.8915 16.2305C15.0269 16.3065 15.1809 16.3429 15.3359 16.3356ZM8.30469 17.1871V16.2653H9.86719V12.2106L8.41406 12.9918L7.98438 12.1637L9.79687 11.1481H10.9375V16.2262H12.3281V17.1871H8.30469Z" fill="#425E72"/>
</svg>
