<svg width="23" height="22" viewBox="0 0 23 22" xmlns="http://www.w3.org/2000/svg">
<path fill-rule="evenodd" clip-rule="evenodd" d="M17.3722 14.9494C18.827 13.1226 19.5126 10.8245 19.2896 8.52269C19.0665 6.22091 17.9516 4.08833 16.1716 2.55882C14.3916 1.02931 12.0802 0.217757 9.70766 0.289266C7.33513 0.360775 5.07967 1.30997 3.40015 2.94376C1.71917 4.57867 0.74147 6.77639 0.6663 9.08906C0.591129 11.4017 1.42414 13.6553 2.99559 15.3905C4.56703 17.1257 6.75863 18.212 9.12379 18.4279C11.4889 18.6439 13.8496 17.9733 15.7248 16.5528L15.775 16.604L20.724 21.4256C20.8324 21.5312 20.9611 21.6149 21.1027 21.672C21.2443 21.7292 21.3961 21.7586 21.5494 21.7586C21.7027 21.7586 21.8545 21.7292 21.9961 21.672C22.1377 21.6149 22.2664 21.5312 22.3748 21.4256C22.4832 21.32 22.5692 21.1947 22.6279 21.0567C22.6865 20.9188 22.7167 20.7709 22.7167 20.6216C22.7167 20.4723 22.6865 20.3244 22.6279 20.1865C22.5692 20.0485 22.4832 19.9232 22.3748 19.8176L17.4247 14.9972L17.3722 14.9494ZM14.9502 4.55171C15.6089 5.18294 16.1327 5.93495 16.4916 6.76437C16.8504 7.59378 17.0371 8.48419 17.0408 9.38424C17.0446 10.2843 16.8654 11.1761 16.5135 12.0084C16.1616 12.8406 15.644 13.5967 14.9906 14.2332C14.3372 14.8696 13.5609 15.3737 12.7065 15.7165C11.8521 16.0592 10.9364 16.2338 10.0124 16.2301C9.08833 16.2265 8.17418 16.0446 7.32264 15.6951C6.47111 15.3456 5.69904 14.8354 5.05099 14.1938C3.75589 12.9116 3.03342 11.1829 3.04094 9.38424C3.04846 7.58557 3.78536 5.86267 5.09113 4.59081C6.3969 3.31896 8.16575 2.6012 10.0124 2.59387C11.859 2.58655 13.6338 3.29026 14.9502 4.55171Z"/>
</svg>
