<?xml version="1.0" encoding="utf-8"?>
<!-- Generator: Adobe Illustrator 25.0.1, SVG Export Plug-In . SVG Version: 6.00 Build 0)  -->
<svg version="1.1" id="Layer_1" xmlns="http://www.w3.org/2000/svg" xmlns:xlink="http://www.w3.org/1999/xlink" x="0px" y="0px"
	 viewBox="0 0 24 24" style="enable-background:new 0 0 24 24;" xml:space="preserve">
<path d="M23.1,9.9c0.3-0.3,0.5-0.6,0.5-1c0.1-0.4,0-0.8-0.3-1.2l-2-3.5c-0.2-0.3-0.4-0.5-0.6-0.6c-0.3-0.2-0.5-0.3-0.8-0.3
	c-0.2,0-0.4,0-0.5,0.1l-2,0.8c-0.4-0.3-0.7-0.5-1.1-0.6l-0.5-2.2c-0.1-0.4-0.3-0.7-0.6-1C14.8,0.1,14.4,0,14,0h-4
	C9.6,0,9.2,0.1,8.9,0.4C8.6,0.6,8.3,1,8.2,1.4L7.8,3.6C7.4,3.8,7.1,3.9,6.7,4.2l-2-0.7C4.5,3.4,4.3,3.4,4.1,3.4
	c-0.4,0-0.6,0.1-0.9,0.3S2.7,4,2.6,4.3l-2,3.5C0.4,8.2,0.3,8.5,0.4,8.9c0.1,0.4,0.3,0.7,0.5,1l1.6,1.5v1.3l-1.6,1.5
	c-0.3,0.3-0.5,0.6-0.5,1c-0.1,0.4,0,0.8,0.2,1.2l2,3.5c0.2,0.3,0.4,0.5,0.6,0.6s0.5,0.3,0.8,0.3c0.2,0,0.4,0,0.5-0.1l2.1-0.8
	c0.4,0.3,0.7,0.5,1.1,0.6l0.5,2.2c0.1,0.4,0.3,0.7,0.6,1C9.2,23.9,9.6,24,10,24h4c0.4,0,0.8-0.1,1.1-0.4c0.3-0.3,0.5-0.6,0.6-1
	l0.5-2.2c0.4-0.2,0.7-0.4,1.1-0.6l2.1,0.7c0.2,0.1,0.4,0.1,0.5,0.1c0.3,0,0.6-0.1,0.8-0.3c0.3-0.2,0.5-0.4,0.6-0.6l1.9-3.5
	c0.2-0.4,0.3-0.7,0.2-1.1c-0.1-0.4-0.3-0.7-0.5-1l-1.6-1.5v-1.3L23.1,9.9z M19.6,13.3l2.4,2.1l-2.1,3.5l-2.9-1
	c-0.7,0.5-1.5,1-2.3,1.4L14,22.4h-4l-0.6-3c-0.8-0.3-1.6-0.7-2.3-1.4l-2.9,0.9l-2-3.5l2.3-2c-0.2-0.9-0.2-1.8,0-2.7L2.1,8.6l2-3.5
	l2.9,1c0.7-0.5,1.5-1,2.3-1.4L10,1.6h4l0.6,3c0.8,0.3,1.6,0.7,2.3,1.4l2.9-0.9l2,3.5l-2.3,2C19.8,11.5,19.8,12.5,19.6,13.3z M14,7.2
	c-0.9-0.4-2-0.5-2.9-0.3c-1,0.2-1.9,0.7-2.7,1.4C7.7,9.1,7.2,10,7.1,11S7,13,7.3,13.9c0.4,0.9,1,1.7,1.9,2.3
	c0.8,0.5,1.8,0.8,2.8,0.8c0.6,0,1.4-0.1,2-0.4c0.6-0.3,1.2-0.6,1.6-1.1c0.5-0.5,0.8-1,1.1-1.6c0.3-0.6,0.4-1.3,0.4-2
	c0-1-0.3-2-0.8-2.8C15.8,8.3,14.9,7.6,14,7.2z M15.2,13.4c-0.2,0.5-0.5,0.8-0.7,1.1c-0.4,0.4-0.7,0.5-1.1,0.7
	c-0.5,0.2-0.9,0.3-1.3,0.3c-0.5,0-0.9-0.1-1.3-0.3c-0.5-0.2-0.8-0.5-1.1-0.7c-0.4-0.4-0.5-0.7-0.7-1.1c-0.2-0.5-0.3-0.9-0.3-1.3
	c0-0.5,0.1-0.9,0.3-1.3c0.2-0.5,0.5-0.8,0.7-1.1c0.4-0.4,0.7-0.5,1.1-0.7c0.4-0.2,0.9-0.3,1.3-0.3c0.5,0,0.9,0.1,1.3,0.3
	c0.4,0.2,0.8,0.5,1.1,0.7c0.4,0.4,0.5,0.7,0.7,1.1c0.2,0.5,0.3,0.9,0.3,1.3S15.4,12.9,15.2,13.4z"/>
</svg>
