<?xml version="1.0" encoding="UTF-8"?>
<svg id="Layer_1" xmlns="http://www.w3.org/2000/svg" version="1.1" viewBox="0 0 16 16">
  <!-- Generator: Adobe Illustrator 29.5.1, SVG Export Plug-In . SVG Version: 2.1.0 Build 141)  -->
  <defs>
    <style>
      .st0 {
        fill: #1ed760;
      }
    </style>
  </defs>
  <path class="st0" d="M12.7,7.1c-2.6-1.5-6.8-1.7-9.3-.9-.4.1-.8-.1-.9-.5-.1-.4.1-.8.5-.9,2.8-.8,7.5-.7,10.5,1.1.4.2.5.7.3,1-.2.3-.7.4-1,.2ZM12.6,9.4c-.2.3-.6.4-.8.2-2.2-1.3-5.4-1.7-8-.9-.3,0-.7,0-.8-.4,0-.3,0-.7.4-.8,2.9-.9,6.5-.4,9,1.1.2.1.4.5.2.8ZM11.7,11.6c-.2.2-.4.3-.7.2-1.9-1.2-4.2-1.4-7-.8-.3,0-.5-.1-.6-.4,0-.3.1-.5.4-.6,3-.7,5.7-.4,7.8.9.3.1.3.4.2.7ZM8,0c-1.1,0-2.1.2-3.1.6-1,.4-1.9,1-2.6,1.7C.8,3.8,0,5.9,0,8s.8,4.2,2.3,5.7c.7.7,1.6,1.3,2.6,1.7,1,.4,2,.6,3.1.6,2.1,0,4.2-.8,5.7-2.3,1.5-1.5,2.3-3.5,2.3-5.7s-.2-2.1-.6-3.1c-.4-1-1-1.9-1.7-2.6-.7-.7-1.6-1.3-2.6-1.7-1-.4-2-.6-3.1-.6Z"/>
</svg>