<svg width="46" height="46" viewBox="0 0 46 46" fill="none" xmlns="http://www.w3.org/2000/svg">
<path fill-rule="evenodd" clip-rule="evenodd" d="M23 2.875C17.6625 2.875 12.5436 4.99531 8.76948 8.76948C4.99531 12.5436 2.875 17.6625 2.875 23C2.875 28.3375 4.99531 33.4564 8.76948 37.2305C12.5436 41.0047 17.6625 43.125 23 43.125C28.3375 43.125 33.4564 41.0047 37.2305 37.2305C41.0047 33.4564 43.125 28.3375 43.125 23C43.125 17.6625 41.0047 12.5436 37.2305 8.76948C33.4564 4.99531 28.3375 2.875 23 2.875ZM17.25 15.8125C16.8688 15.8125 16.5031 15.964 16.2335 16.2335C15.964 16.5031 15.8125 16.8688 15.8125 17.25V28.75C15.8125 29.1312 15.964 29.4969 16.2335 29.7665C16.5031 30.0361 16.8688 30.1875 17.25 30.1875H28.75C29.1312 30.1875 29.4969 30.0361 29.7665 29.7665C30.0361 29.4969 30.1875 29.1312 30.1875 28.75V17.25C30.1875 16.8688 30.0361 16.5031 29.7665 16.2335C29.4969 15.964 29.1312 15.8125 28.75 15.8125H17.25Z" fill="#425E72"/>
</svg>
