<svg width="19" height="19" viewBox="0 0 19 19" fill="none" xmlns="http://www.w3.org/2000/svg">
<path fill-rule="evenodd" clip-rule="evenodd" d="M11.5692 3.5H14.6429C15.0975 3.5 15.5336 3.68061 15.8551 4.0021C16.1766 4.32359 16.3572 4.75963 16.3572 5.21429V8.288C16.3571 8.51531 16.2668 8.73329 16.106 8.894L10.2834 14.7166C9.96197 15.038 9.52602 15.2185 9.07145 15.2185C8.61688 15.2185 8.18092 15.038 7.85945 14.7166L5.14059 11.9977C4.81921 11.6762 4.63867 11.2403 4.63867 10.7857C4.63867 10.3311 4.81921 9.89519 5.14059 9.57371L10.9632 3.75114C11.1239 3.59039 11.3419 3.50005 11.5692 3.5Z" stroke="#425E72" stroke-linecap="round" stroke-linejoin="round"/>
<path d="M7.78574 14.6424L6.06031 15.5047C5.84545 15.6122 5.6104 15.6733 5.37042 15.684C5.13043 15.6948 4.89086 15.655 4.66724 15.5672C4.44362 15.4795 4.24094 15.3457 4.07234 15.1746C3.90375 15.0034 3.77301 14.7988 3.68859 14.5739L2.30431 10.883C2.16019 10.4985 2.15887 10.075 2.3006 9.68964C2.44233 9.30425 2.71769 8.98253 3.07659 8.78301L9.50002 5.21387" stroke="#425E72" stroke-linecap="round" stroke-linejoin="round"/>
<path d="M15.0716 5.64328C15.0716 5.16989 14.6879 4.78613 14.2145 4.78613C13.7411 4.78613 13.3574 5.16989 13.3574 5.64328C13.3574 6.11666 13.7411 6.50042 14.2145 6.50042C14.6879 6.50042 15.0716 6.11666 15.0716 5.64328Z" fill="#425E72"/>
</svg>
