<?xml version="1.0" encoding="utf-8"?>
<!-- Generator: Adobe Illustrator 25.0.1, SVG Export Plug-In . SVG Version: 6.00 Build 0)  -->
<svg version="1.1" id="Layer_1" xmlns="http://www.w3.org/2000/svg" xmlns:xlink="http://www.w3.org/1999/xlink" x="0px" y="0px"
	 viewBox="0 0 256 256" style="enable-background:new 0 0 256 256;" xml:space="preserve">
<path d="M231.9,212c-10.5-18.2-25.7-33.4-43.9-43.9c-7.4-4.3-15.1-7.7-23.1-10.3c21-12.6,35.1-35.6,35.1-61.8c0-39.7-32.3-72-72-72
	S56,56.3,56,96c0,26.2,14.1,49.2,35.1,61.8c-28.4,9.1-52,28.2-67,54.2c-2.2,3.8-0.9,8.7,2.9,10.9c3.8,2.2,8.7,0.9,10.9-2.9
	c13.9-24.1,36.3-41.3,63.1-48.5c8.4-2.3,16.9-3.4,25.4-3.6c0.5,0,1,0,1.5,0c0.5,0,1,0,1.5,0c17.5,0.2,34.8,4.9,50.5,14
	c15.8,9.1,29,22.3,38.1,38.1c1.5,2.6,4.2,4,6.9,4c1.4,0,2.7-0.3,4-1.1C232.8,220.7,234.1,215.8,231.9,212z M72,96
	c0-30.9,25.1-56,56-56c30.9,0,56,25.1,56,56c0,30.3-24.2,55-54.3,56c-1.2,0-2.3,0-3.5,0C96.2,151,72,126.3,72,96z"/>
</svg>
