<svg width="24" height="24" viewBox="0 0 24 24" fill="none" xmlns="http://www.w3.org/2000/svg">
<path d="M12.253 19.3998L7.99 15.7818C7.80936 15.6283 7.58006 15.544 7.343 15.5438H4.75C4.21957 15.5438 3.71086 15.3331 3.33579 14.958C2.96071 14.583 2.75 14.0742 2.75 13.5438V10.4578C2.75 9.92738 2.96071 9.41867 3.33579 9.0436C3.71086 8.66853 4.21957 8.45782 4.75 8.45782H7.344C7.58106 8.45768 7.81036 8.37333 7.991 8.21982L12.253 4.59982C12.3985 4.47638 12.5762 4.39713 12.7653 4.37142C12.9543 4.34572 13.1467 4.37462 13.3199 4.45473C13.493 4.53484 13.6397 4.66281 13.7425 4.82353C13.8452 4.98426 13.8999 5.17103 13.9 5.36182V18.6398C13.8999 18.8306 13.8452 19.0174 13.7425 19.1781C13.6397 19.3388 13.493 19.4668 13.3199 19.5469C13.1467 19.627 12.9543 19.6559 12.7653 19.6302C12.5762 19.6045 12.3985 19.5253 12.253 19.4018V19.3998Z" stroke="black" stroke-width="1.5" stroke-linejoin="round"/>
<path d="M16.6639 8.54183C17.1439 8.89183 17.5439 9.39583 17.8219 10.0038C18.0989 10.6108 18.2459 11.2988 18.2459 11.9998C18.2459 12.6998 18.0989 13.3898 17.8219 13.9958C17.5439 14.6028 17.1449 15.1078 16.6639 15.4578M18.6999 6.42383C19.4749 6.98883 20.1199 7.80183 20.5669 8.78083C21.0139 9.75883 21.2499 10.8698 21.2499 11.9998C21.2499 13.1298 21.0139 14.2398 20.5669 15.2198C20.1189 16.1978 19.4749 17.0108 18.6999 17.5758" stroke="black" stroke-width="1.5" stroke-linecap="round" stroke-linejoin="round"/>
</svg>
