<?xml version="1.0" encoding="UTF-8"?>
<svg id="Layer_1" xmlns="http://www.w3.org/2000/svg" version="1.1" viewBox="0 0 16 16">
  <!-- Generator: Adobe Illustrator 29.5.1, SVG Export Plug-In . SVG Version: 2.1.0 Build 141)  -->
  <path d="M6.5,10.5l4.2-2.4-4.2-2.4s0,4.8,0,4.8ZM15.8,4.2c.1.4.2.9.2,1.5v2.4c0,1.8,0,3-.3,3.9-.2.7-.7,1.2-1.4,1.4-.4.1-1.1.2-2.1.2h-4.2c-3.4,0-5.4,0-6.3-.3-.7-.2-1.2-.7-1.4-1.4-.1-.4-.2-.9-.2-1.5v-2.4C0,6.2,0,5,.3,4.1c.2-.7.7-1.2,1.4-1.4.4,0,1.1-.2,2.1-.2h4.2c3.4,0,5.4,0,6.3.3.7.2,1.2.7,1.4,1.4Z"/>
</svg>