<?xml version="1.0" encoding="utf-8"?>
<!-- Generator: Adobe Illustrator 23.0.4, SVG Export Plug-In . SVG Version: 6.00 Build 0)  -->
<svg version="1.1" id="Réteg_1" xmlns="http://www.w3.org/2000/svg" xmlns:xlink="http://www.w3.org/1999/xlink" x="0px" y="0px"
	 viewBox="0 0 87.2 75.1" style="enable-background:new 0 0 87.2 75.1;" xml:space="preserve">
<style type="text/css">
	.st0{fill:#233240;}
	.st1{fill-rule:evenodd;clip-rule:evenodd;fill:#233240;}
</style>
<title>mmki_logo_rovid_co_all_white</title>
<path class="st0" d="M1.2,59.3L4.8,68l0.4,1.1h0L5.7,68l3.6-8.7h1.2v11.2H9.5v-8.4l0-1.2l0,0L9.1,62l-3.5,8.5H4.8L1.4,62l-0.4-1.1
	l0,0l0,1.2v8.4H0.1V59.3H1.2z"/>
<path class="st0" d="M15.5,59.3L19,68l0.4,1.1h0l0.4-1.1l3.6-8.7h1.2v11.2h-0.9v-8.4l0-1.2l0,0L23.3,62l-3.5,8.5h-0.8L15.6,62
	l-0.4-1.1l0,0l0,1.2v8.4h-0.9V59.3H15.5z"/>
<path class="st0" d="M34.8,67.5h-5.4l-1.1,3h-1.1l4.3-11.2h1.2L37,70.5h-1.1L34.8,67.5z M31.7,61.1l-2,5.5h4.8l-2-5.5L32.2,60h0
	L31.7,61.1z"/>
<path class="st0" d="M39,64.7c0-0.4,0.1-0.8,0.4-1.1c0.3-0.3,0.7-0.4,1.1-0.4c0.4,0,0.8,0.1,1.1,0.4c0.3,0.3,0.4,0.7,0.4,1.1v0.4
	c0,0.4-0.1,0.8-0.4,1.1c-0.6,0.5-1.6,0.5-2.2,0c-0.3-0.3-0.4-0.7-0.4-1L39,64.7z"/>
<path class="st0" d="M47.2,59.3l2.9,7.2l0.4,1.1h0l0.4-1.1l2.9-7.2h2.3v11.2h-1.9V64l0-1.2l0,0l-0.4,1.1l-2.6,6.6h-1.4l-2.6-6.6
	l-0.4-1.1l0,0l0,1.2v6.5h-1.8V59.3L47.2,59.3z"/>
<path class="st0" d="M61.6,59.3l2.9,7.2l0.4,1.1h0l0.4-1.1l2.9-7.2h2.3v11.2h-1.9V64l0-1.2l0,0l-0.4,1.1l-2.6,6.6h-1.4l-2.6-6.6
	l-0.4-1.1l0,0l0,1.2v6.5h-1.8V59.3L61.6,59.3z"/>
<path class="st0" d="M80.3,70.5l-3.2-4.9h-1.4v4.9h-2.1V59.3h2.1v4.6h1.4l3-4.6h2.4L79,64.6l3.8,5.9H80.3z"/>
<path class="st0" d="M86.1,60.3c-0.8,0-1.1-0.2-1.1-0.9c0-0.6,0.4-0.9,1.1-0.9c0.8,0,1.1,0.3,1.1,0.9C87.2,60,86.9,60.3,86.1,60.3z
	 M85.1,70.5v-9l1.9-0.1v9.1H85.1z"/>
<path class="st1" d="M62.3,28.4c0.1,0,0.1-0.1,0.1-0.1c0.5-0.6,1.5-0.7,2.1-0.2c0.1,0.1,0.3,0.3,0.3,0.4c0.1,0.3,0.2,0.6,0.2,0.9
	c0,0.5-0.5,0.9-1,0.9c-0.2,0-0.3-0.1-0.4-0.2c-0.1-0.1-0.1-0.3-0.1-0.4c0-0.1,0-0.2-0.1-0.3c-0.1-0.1-0.2-0.1-0.3,0
	c-0.1,0.1-0.1,0.2,0,0.3c0,0.1,0.1,0.1,0.1,0.1c0.1,0.1,0.2,0.2,0.3,0.3c0.1,0.1,0.2,0.3,0.2,0.4c0.1,0.3,0,0.6-0.2,0.8
	c-0.1,0.1-0.1,0.2,0,0.3c0,0.1,0.1,0.2,0.1,0.3c0.1,0.1,0,0.3-0.1,0.4c-0.1,0.1-0.1,0.2-0.1,0.3c0.1,0.2,0.1,0.5,0.1,0.7
	c0,0.1,0,0.2-0.1,0.2c-0.1,0.1-0.1,0.2,0,0.4c0.1,0.2,0.1,0.4,0.1,0.6c0,0.2,0,0.4-0.2,0.5c-0.1,0.1-0.1,0.2,0,0.3
	c0.1,0.2,0.1,0.4,0.1,0.7c0,0.1-0.1,0.3-0.2,0.4c-0.1,0-0.1,0.1-0.1,0.2c0.2,0.8,0,1.7-0.6,2.4c-0.3,0.4-0.7,0.7-1.1,1
	c-0.1,0-0.1,0.1-0.1,0.1c0.1,0.1,0.1,0.1,0.2,0.2c0.3,0.3,0.3,0.7,0,1c0,0-0.1,0-0.1,0.1c-0.2,0.1-0.4,0.2-0.6,0.3
	c-0.2,0-0.2,0-0.2,0.2c-0.1,0.4-0.1,0.7,0,1.1c0.1,0.5,0.1,0.9,0.1,1.4c0,0.2,0,0.2,0.2,0.3c0.2,0.1,0.4,0.2,0.5,0.5
	c0.2,0.4,0.2,1,0,1.4c-0.2,0.3-0.5,0.5-0.8,0.5c-0.1,0-0.1,0-0.2,0H26.2c-0.5,0-0.9-0.3-1-0.8c-0.1-0.4-0.1-0.8,0.1-1.1
	c0.1-0.2,0.3-0.4,0.5-0.5c0.2-0.1,0.2-0.1,0.2-0.3c0-0.5,0-1.1,0.1-1.6c0-0.3,0-0.7,0-1c0-0.1-0.1-0.1-0.2-0.1
	c-0.2,0-0.4-0.1-0.6-0.2c-0.4-0.2-0.5-0.6-0.3-0.9c0-0.1,0.1-0.2,0.2-0.2c0,0,0.1-0.1,0.1-0.1c-0.1-0.1-0.1-0.2-0.2-0.2
	c-0.3-0.3-0.7-0.6-0.9-0.9c-0.3-0.4-0.6-0.8-0.7-1.3c-0.1-0.3-0.1-0.7,0-1c0.1-0.1,0-0.3-0.1-0.4c-0.1-0.1-0.1-0.2-0.1-0.2
	c0-0.2,0-0.5,0.1-0.7c0-0.1,0-0.2-0.1-0.3c-0.1-0.1-0.1-0.2-0.1-0.3c0-0.3,0-0.5,0.1-0.7c0.1-0.1,0-0.3,0-0.4
	c-0.1-0.1-0.1-0.2-0.1-0.3c0-0.2,0-0.4,0.1-0.7c0.1-0.1,0-0.2-0.1-0.3c-0.1-0.1-0.1-0.2-0.1-0.4c0-0.1,0.1-0.2,0.1-0.2
	c0.1-0.1,0.1-0.3,0-0.3c-0.3-0.3-0.3-0.8,0-1.2c0,0,0.1-0.1,0.1-0.2c0-0.1,0.1-0.2,0.2-0.2c0.1-0.1,0.2-0.2,0.1-0.3
	c0-0.1-0.1-0.1-0.1-0.1c-0.1,0-0.2,0-0.3,0.1c0,0,0,0.1,0,0.2c0,0.1,0,0.2-0.1,0.3c-0.2,0.3-0.3,0.4-0.7,0.3
	c-0.5-0.1-0.8-0.6-0.8-1.1c0-0.6,0.4-1.2,1-1.4c0.6-0.2,1.2-0.1,1.6,0.4c0,0,0.1,0.1,0.2,0.1c0.1,0,0.1-0.1,0.1-0.2
	c0-0.1,0.1-0.2,0.2-0.3c0.1-0.2,0.1-0.4,0.1-0.5c0-1.4-0.1-2.8-0.1-4.2c-0.2-4.2-1-8.3-2.4-12.3c-0.3-0.8-0.6-1.6-1-2.4
	c-0.2-0.4-0.4-0.8-0.6-1.2c-0.1-0.2-0.1-0.4-0.1-0.5c0-0.2,0.1-0.4,0.4-0.4c0.1,0,0.1,0,0.2,0c0.1,0.1,0.3,0.1,0.4,0.2
	c0.3,0.3,0.6,0.6,0.8,0.9c0.9,1.2,1.6,2.6,2.2,4c0.5,1.2,0.9,2.5,1.3,3.7c0.2,0.5,0.3,1,0.5,1.5c0,0,0,0.1,0.1,0.1
	c0-0.2,0-0.4-0.1-0.7c-0.1-1-0.3-2-0.5-3c-0.2-0.9-0.5-1.9-0.7-2.8c-0.2-0.8-0.4-1.6-0.5-2.4c-0.1-0.4-0.1-0.7-0.1-1.1
	c0-0.1,0-0.2,0-0.2c0-0.2,0.2-0.3,0.3-0.3c0,0,0,0,0,0c0.2,0,0.3,0,0.5,0.1c0.4,0.2,0.7,0.4,0.9,0.7c0.2,0.2,0.4,0.4,0.5,0.7
	c0.8,1.2,1.4,2.5,1.9,3.8c0.7,1.9,1.3,3.9,1.7,6c0.2,0.7,0.3,1.5,0.4,2.2c0,0,0,0.1,0,0.2c0,0,0-0.1,0-0.1c0-0.4-0.1-0.9-0.1-1.3
	c-0.1-0.6-0.1-1.3-0.2-1.9c-0.1-0.8-0.2-1.6-0.3-2.4c-0.1-0.8-0.3-1.7-0.4-2.5c-0.1-0.7-0.2-1.3-0.3-2c-0.1-0.5-0.1-1.1-0.2-1.6
	c0-0.4,0-0.9,0.1-1.3c0-0.2,0.1-0.3,0.2-0.4c0.1-0.1,0.3-0.2,0.4-0.2c0.2,0.1,0.4,0.2,0.6,0.3c0.5,0.3,0.8,0.7,1.1,1.2
	c0.4,0.8,0.8,1.6,1.2,2.4c0.5,1.4,1,2.9,1.3,4.4c0.3,1.3,0.5,2.6,0.8,3.9c0.1,0.6,0.2,1.3,0.3,1.9c0,0.1,0,0.1,0.1,0.2
	c0-0.1,0-0.2,0-0.2c0-1.1-0.1-2.1-0.1-3.2c0-0.8-0.1-1.6-0.1-2.4c-0.1-1-0.1-1.9-0.2-2.9C35.1,10.9,35,10,35,9
	c0-0.6,0.1-1.3,0.3-1.9c0.1-0.2,0.1-0.3,0.2-0.5c0.1-0.2,0.3-0.3,0.5-0.3c0.7,0,1.4,0.4,1.8,1c0.2,0.4,0.4,0.7,0.6,1.1
	c0.4,1.1,0.7,2.1,0.9,3.3c0.3,1.5,0.6,3.1,0.8,4.7c0.1,0.7,0.2,1.5,0.3,2.2c0,0.1,0,0.2,0,0.2c0-0.1,0-0.1,0-0.2c0-1,0-2.1,0.1-3.1
	c0.1-2,0.4-3.9,0.8-5.9c0.2-0.7,0.4-1.3,0.6-1.9C42,7.6,42.2,7.3,42.4,7c0.1-0.2,0.3-0.4,0.5-0.5c0.3-0.2,0.8-0.2,1.1,0
	c0.2,0.2,0.4,0.4,0.6,0.6c0.3,0.4,0.5,0.9,0.6,1.4c0.3,0.9,0.5,1.8,0.7,2.7c0.2,1.1,0.3,2.2,0.4,3.4c0.1,0.9,0.1,1.8,0.1,2.6
	c0,0.2,0,0.5,0,0.7c0.1-0.2,0.1-0.4,0.1-0.5c0.1-1.1,0.3-2.2,0.5-3.3c0.3-1.6,0.6-3.3,1.1-4.9c0.2-0.5,0.4-1,0.6-1.5
	c0.3-0.7,1-1.2,1.8-1.3c0,0,0.1,0,0.1,0c0.3-0.1,0.5,0.1,0.6,0.3c0.2,0.4,0.3,0.8,0.4,1.3c0.1,0.5,0.1,1,0.1,1.6
	c-0.1,0.8-0.1,1.5-0.1,2.3c-0.1,1-0.1,2-0.2,3c0,0.7-0.1,1.4-0.1,2.1c-0.1,1.1-0.1,2.1-0.1,3.2c0,0.1,0,0.2,0,0.2
	c0.1-0.2,0.1-0.5,0.1-0.7c0.3-2.3,0.8-4.6,1.4-6.8c0.4-1.5,0.9-2.9,1.6-4.3c0.2-0.3,0.3-0.7,0.6-1c0.3-0.5,0.7-0.9,1.2-1.2
	c0.2-0.1,0.3-0.2,0.5-0.2c0.2-0.1,0.4,0,0.4,0.2c0.1,0.2,0.2,0.4,0.2,0.6c0.1,0.5,0.1,1.1,0,1.6c-0.1,1.3-0.4,2.6-0.6,3.9
	c-0.2,1-0.3,2-0.4,3c-0.2,1.3-0.3,2.5-0.4,3.8c0,0.2,0,0.4,0,0.6c0-0.1,0-0.1,0-0.2c0.2-1.3,0.5-2.5,0.8-3.7c0.5-2,1.1-4,1.9-5.8
	C59,9.4,59.4,8.6,60,7.8c0.3-0.5,0.8-1,1.4-1.2c0.1-0.1,0.3-0.1,0.4-0.1c0.3,0,0.4,0.1,0.4,0.3c0,0.3,0,0.5,0,0.8
	c-0.2,1.2-0.4,2.4-0.7,3.6c-0.2,1-0.5,2-0.7,3.1c-0.1,0.5-0.2,1.1-0.3,1.6c0,0.2-0.1,0.5-0.1,0.7c0,0.1,0,0.2,0,0.2
	c0.1-0.1,0.1-0.2,0.1-0.3c0.3-1.1,0.7-2.2,1-3.2c0.4-1.1,0.8-2.2,1.3-3.3c0.4-0.8,0.9-1.6,1.5-2.4c0.2-0.3,0.5-0.7,0.8-1
	c0.1-0.1,0.3-0.2,0.4-0.3c0.2-0.1,0.4,0,0.5,0.1c0,0.1,0.1,0.1,0,0.2c0,0.1,0,0.3-0.1,0.4c-0.1,0.3-0.2,0.6-0.3,0.8
	c-0.8,1.7-1.5,3.5-2,5.3c-0.5,1.8-0.9,3.6-1.2,5.5c-0.1,1-0.2,1.9-0.3,2.9c-0.2,1.9-0.2,3.8-0.3,5.7c0,0.2,0,0.4,0.1,0.6
	c0.1,0.1,0.1,0.2,0.2,0.3C62.3,28.3,62.3,28.3,62.3,28.4z M54.3,39.9c0-0.1,0-0.1-0.1-0.2c-0.2-0.2-0.3-0.5-0.4-0.7
	c-0.2-0.3-0.3-0.7-0.3-1.1c0-0.2,0.1-0.4,0.3-0.6c0.2-0.1,0.2-0.1,0.1-0.3c-0.1-0.2-0.2-0.5-0.3-0.7c-0.1-0.3,0-0.6,0.3-0.8
	c0.1-0.1,0.1-0.2,0-0.3c-0.1-0.3-0.2-0.6-0.2-1c0-0.3,0.1-0.7,0.4-0.9c0.1-0.1,0.2-0.3,0.1-0.4c-0.1-0.2-0.1-0.5-0.1-0.7
	c0-0.4,0.2-0.8,0.6-0.9c0.1,0,0.1-0.1,0.1-0.2c0,0,0,0,0,0c0-0.1,0-0.3-0.1-0.4c0-0.3-0.1-0.5-0.1-0.8c0-0.4,0.3-0.8,0.7-0.8
	c0,0,0,0,0,0c0.2,0,0.2,0,0.2-0.2c0-0.2,0-0.5,0-0.7c0-0.4,0.2-0.8,0.5-1.1c0.2-0.2,0.5-0.3,0.8-0.3c0.2,0,0.5,0.1,0.6,0.2
	c0.1,0.1,0.3,0.2,0.4,0.2c0.2,0.1,0.4,0,0.5-0.1c0.2-0.1,0.4-0.2,0.6-0.2c0.2,0,0.2,0,0.2-0.2c0-0.2,0-0.3,0-0.5
	c0.1-1.6,0.1-3.3,0.2-4.9c0-0.7,0.1-1.4,0.2-2.1c0.1-1,0.3-2,0.4-3c0.1-1,0.3-2.1,0.6-3.1c0.4-1.5,0.8-2.9,1-4.4
	c0.1-0.5,0.2-0.9,0.2-1.4c0-0.2,0-0.2-0.2-0.1c0,0,0,0-0.1,0c-0.4,0.2-0.8,0.6-1,1c-0.4,0.6-0.7,1.2-1,1.8c-0.7,1.5-1.3,3-1.7,4.5
	c-0.7,2.7-1.3,5.5-1.7,8.2c-0.2,1-0.3,2.1-0.5,3.1c-0.1,0.7-0.2,1.5-0.3,2.2c0,0.1,0,0.2-0.1,0.3c0,0.1-0.1,0.2-0.2,0.2
	c-0.1,0-0.2-0.1-0.2-0.2c0-0.1,0-0.1,0-0.2c0.1-0.4,0.1-0.8,0.2-1.2c0.1-0.5,0.2-1.1,0.2-1.6c0.1-1.4,0.2-2.8,0.2-4.3
	c0-0.5,0.1-1.1,0.1-1.6c0.1-0.8,0.1-1.6,0.2-2.4c0.1-0.6,0.1-1.2,0.2-1.9c0.1-0.8,0.2-1.6,0.3-2.3c0.1-1,0.3-2,0.5-3
	c0.1-0.7,0.2-1.3,0.1-2c0-0.2,0-0.5-0.1-0.7c0-0.1-0.1-0.1-0.2-0.1c0,0-0.1,0-0.1,0.1c-0.4,0.3-0.8,0.6-1,1.1c-0.4,0.7-0.7,1.3-1,2
	c-0.8,1.9-1.3,3.9-1.7,6c-0.4,1.9-0.7,3.8-1,5.7c-0.2,1.6-0.4,3.3-0.5,5c0,0.1,0,0.2,0,0.2c0.1,0,0.2-0.1,0.3-0.1
	c0.1,0,0.2,0,0.3-0.1c0.3-0.1,0.7,0.1,0.9,0.3c0.2,0.2,0.3,0.5,0.4,0.7c0.1,0.2,0.2,0.4,0.1,0.6c0,0.3-0.1,0.6-0.2,0.9
	c-0.1,0.2,0,0.2,0.1,0.3c0.2,0.1,0.3,0.3,0.4,0.5c0,0.2,0,0.3,0,0.5c0,0.3-0.1,0.7-0.3,1c-0.1,0.2-0.1,0.2,0.1,0.3
	c0.2,0.2,0.3,0.4,0.3,0.7c0,0.3,0,0.5-0.1,0.8c0,0.1-0.1,0.2-0.2,0.3c-0.1,0.1-0.1,0.2,0,0.3c0,0,0.1,0.1,0.1,0.2
	c0.2,0.6,0.2,1.2-0.2,1.7c-0.1,0.1-0.1,0.2,0,0.3c0.2,0.3,0.2,0.8-0.1,1.1c-0.1,0.1-0.2,0.2-0.3,0.4c-0.1,0.1-0.1,0.2,0,0.2
	c0,0,0,0,0,0c0.2,0.2,0.2,0.5,0.2,0.8c-0.1,0.3-0.3,0.7-0.5,0.9c-0.1,0.1-0.2,0.2-0.3,0.2C52.9,39.8,53.6,39.8,54.3,39.9z
	 M34.6,39.8c-0.1-0.1-0.2-0.2-0.3-0.3c-0.2-0.2-0.4-0.5-0.4-0.8c-0.1-0.3,0-0.6,0.2-0.8c0.1-0.1,0.1-0.1,0-0.2
	c-0.1-0.1-0.2-0.3-0.3-0.4c-0.3-0.3-0.3-0.8,0-1.1c0.1-0.1,0.1-0.2,0-0.3c-0.2-0.3-0.3-0.6-0.3-0.9c0-0.4,0-0.7,0.2-1
	c0.1-0.1,0.1-0.1,0-0.3c-0.1-0.1-0.1-0.2-0.2-0.3c-0.2-0.5-0.1-1,0.3-1.4c0.1-0.1,0.1-0.2,0.1-0.2c0-0.1-0.1-0.1-0.1-0.2
	c-0.1-0.3-0.2-0.7-0.2-1.1c0-0.3,0.1-0.6,0.4-0.8c0.1-0.1,0.1-0.1,0.1-0.2c-0.1-0.2-0.1-0.4-0.2-0.6c-0.1-0.3-0.1-0.6,0-0.9
	c0.1-0.3,0.3-0.5,0.4-0.8c0-0.1,0.1-0.1,0.1-0.1c0.2-0.2,0.5-0.3,0.8-0.2c0.2,0,0.3,0.1,0.5,0.1c0.1,0,0.1,0,0.1-0.1
	c0-0.1,0-0.2,0-0.3c-0.1-1-0.1-1.9-0.2-2.9c-0.1-1-0.3-2.1-0.4-3.1c-0.2-1.1-0.4-2.3-0.6-3.4c-0.3-1.7-0.7-3.4-1.2-5
	c-0.4-1.4-1-2.7-1.7-3.9c-0.1-0.2-0.2-0.4-0.3-0.5c-0.2-0.3-0.5-0.6-0.9-0.8c-0.2-0.1-0.2-0.1-0.2,0.1c-0.1,0.4-0.1,0.8-0.1,1.2
	c0,0.6,0.1,1.2,0.2,1.8c0.2,1.7,0.5,3.4,0.8,5.1c0.1,0.9,0.2,1.7,0.3,2.6c0.1,0.8,0.1,1.5,0.2,2.3c0.1,1.1,0.1,2.2,0.2,3.2
	c0,0.6,0,1.2,0.1,1.7c0.1,1,0.2,2,0.4,3.1c0,0.1,0,0.2-0.1,0.3c-0.1,0.1-0.2,0.1-0.3,0.1c0,0-0.1,0-0.1-0.1
	c-0.1-0.1-0.1-0.2-0.1-0.3c0-0.1,0-0.3,0-0.4c-0.2-1.1-0.3-2.3-0.5-3.4c-0.2-1.5-0.5-2.9-0.7-4.4c-0.3-1.5-0.6-3-1-4.4
	c-0.4-1.7-1-3.3-1.7-4.9c-0.4-0.9-0.9-1.8-1.4-2.6c-0.3-0.4-0.7-0.8-1.1-1C25.1,7,25.1,7,25.1,7.2c0,0.5,0.1,1,0.2,1.5
	c0.2,1.3,0.6,2.5,0.9,3.7c0.3,1.2,0.6,2.4,0.7,3.6c0.1,1.1,0.3,2.1,0.4,3.2c0.1,0.9,0.2,1.7,0.2,2.6c0,1.2,0.1,2.3,0.1,3.5
	c0,0.4,0,0.9,0.1,1.3c0,0.2,0,0.2,0.2,0.2c0.2,0,0.3,0.1,0.5,0.2c0.2,0.2,0.5,0.2,0.7,0.1c0.1-0.1,0.3-0.2,0.4-0.2
	c0.4-0.2,0.9-0.2,1.2,0.1c0.3,0.2,0.5,0.6,0.6,1c0,0.3,0,0.6,0,0.9c0,0.2,0,0.2,0.2,0.2c0.3,0,0.5,0.2,0.5,0.5
	c0.1,0.2,0.1,0.5,0.1,0.7c0,0.3-0.1,0.5-0.1,0.8c0,0.2,0,0.2,0.1,0.2c0.2,0.1,0.4,0.3,0.5,0.5c0.1,0.2,0.1,0.4,0.1,0.7
	c0,0.2-0.1,0.4-0.1,0.6c0,0.1,0,0.2,0.1,0.2c0,0,0,0,0,0c0.2,0.1,0.3,0.3,0.3,0.5c0.2,0.5,0.2,1,0,1.4c-0.1,0.1,0,0.3,0.1,0.4
	c0.1,0.1,0.2,0.3,0.2,0.4c0,0.2,0,0.4-0.1,0.7c-0.1,0.2-0.1,0.3-0.2,0.5c-0.1,0.1,0,0.2,0.1,0.3c0.2,0.1,0.3,0.3,0.3,0.5
	c0.1,0.4,0,0.8-0.2,1.1c-0.1,0.3-0.3,0.6-0.5,0.8c0,0.1-0.1,0.1-0.1,0.2C33.2,39.8,33.9,39.8,34.6,39.8z M43.4,41
	c0.1-0.3,0.4-0.6,0.7-0.7c0.1,0,0.2-0.1,0.2-0.1c0.3-0.1,0.3-0.1,0.1-0.4c-0.2-0.3-0.5-0.6-0.7-0.9c-0.2-0.2-0.3-0.5-0.3-0.8
	c-0.1-0.4,0-0.8,0.3-1c0.1,0,0.1-0.1,0.1-0.2c0-0.1-0.1-0.1-0.1-0.2c-0.1-0.2-0.2-0.4-0.2-0.6c-0.1-0.3,0-0.6,0.2-0.8
	c0.2-0.1,0.2-0.1,0.1-0.3c-0.2-0.4-0.2-0.9-0.1-1.3c0-0.2,0.2-0.4,0.3-0.5c0.1-0.1,0.2-0.3,0.1-0.4c0,0,0,0,0,0
	c-0.1-0.3-0.2-0.5-0.1-0.8c0-0.3,0.2-0.6,0.5-0.8c0.2-0.1,0.2-0.1,0.2-0.3c0,0,0-0.1,0-0.1c-0.1-0.3-0.1-0.7-0.1-1
	c0-0.1,0-0.2,0-0.3c0.1-0.3,0.3-0.5,0.6-0.5c0.2,0,0.2,0,0.2-0.2c0-0.2,0-0.4,0-0.6c0-0.5,0.1-0.9,0.5-1.2c0.1-0.1,0.2-0.2,0.2-0.4
	c0-0.1,0-0.1,0-0.2c0-2.3,0-4.7,0-7c0-2.3-0.1-4.7-0.4-7c-0.1-1-0.4-2.1-0.6-3.1c-0.2-0.6-0.4-1.2-0.7-1.7c-0.1-0.2-0.3-0.4-0.4-0.5
	c-0.2-0.2-0.5-0.2-0.7,0c-0.1,0.1-0.2,0.2-0.3,0.3c-0.1,0.1-0.2,0.3-0.3,0.5c-0.2,0.5-0.4,1-0.6,1.6c-0.4,1.3-0.6,2.7-0.7,4
	c-0.2,1.5-0.3,3.1-0.3,4.6c0,2.8,0,5.7,0,8.5c0,0.2,0.1,0.4,0.2,0.5c0.2,0.3,0.4,0.6,0.4,1c0,0.2,0,0.4,0,0.7c0,0.2,0,0.2,0.2,0.2
	c0.3,0,0.5,0.2,0.6,0.5c0.1,0.2,0.1,0.3,0.1,0.5c0,0.3,0,0.6-0.1,0.9c0,0.2,0,0.2,0.1,0.3c0.2,0.1,0.4,0.2,0.4,0.4
	c0.1,0.2,0.1,0.5,0.1,0.7c0,0.2-0.1,0.4-0.2,0.6c-0.1,0.1-0.1,0.1,0.1,0.2c0.1,0.1,0.2,0.2,0.3,0.4c0.2,0.5,0.2,1,0,1.5
	c-0.1,0.2-0.1,0.2,0.1,0.4c0.2,0.2,0.3,0.5,0.2,0.7c0,0.1-0.1,0.3-0.1,0.4c-0.1,0.1-0.1,0.3-0.2,0.4C42.9,37,42.9,37,43,37.1
	c0.2,0.2,0.3,0.5,0.3,0.7c0,0.4-0.1,0.7-0.3,1c-0.2,0.3-0.4,0.6-0.7,0.9c0,0-0.1,0.1-0.1,0.1c0,0.1,0,0.1,0,0.2
	c0.1,0.1,0.3,0.1,0.4,0.2C43,40.4,43.2,40.6,43.4,41C43.3,41,43.4,41,43.4,41L43.4,41z M40.2,24.6c-0.1-1.6-0.2-3.1-0.3-4.6
	c-0.1-0.9-0.2-1.8-0.3-2.7c-0.1-1.1-0.3-2.2-0.5-3.4c-0.2-1.3-0.5-2.5-0.8-3.8c-0.2-0.8-0.5-1.5-0.8-2.2c-0.2-0.5-0.7-0.9-1.3-1
	c-0.2,0-0.2,0-0.3,0.2c-0.2,0.6-0.3,1.3-0.3,2c0,0.5,0,1,0.1,1.6c0.1,0.9,0.1,1.9,0.2,2.8c0.1,1,0.1,2.1,0.2,3.1
	c0.1,1,0.1,2.1,0.1,3.1c0.1,1.8,0.1,3.5,0.2,5.3c0,0.6,0,1.2,0,1.8c0,0.1,0,0.1,0,0.2c0.1,0,0.1,0,0.2-0.1c0,0,0.1-0.1,0.1-0.1
	c0.1-0.1,0.2-0.1,0.3-0.2c0.3-0.2,0.8-0.2,1.1,0c0.1,0,0.1,0.1,0.2,0.1c0.2,0.2,0.5,0.2,0.8,0.1c0.1,0,0.1-0.1,0.2-0.1
	c0.1,0,0.2-0.1,0.2-0.1c0.2-0.1,0.4-0.1,0.6-0.1c0.1,0,0.1,0,0.2-0.1c0,0,0-0.1,0-0.1C40.3,25.6,40.3,25.1,40.2,24.6z M50.5,27v-0.2
	c0-2.5,0.1-4.9,0.2-7.4c0.1-2,0.2-4.1,0.3-6.1c0.1-1.3,0.2-2.5,0.2-3.8c0-0.5,0-1-0.1-1.5c-0.1-0.3-0.1-0.7-0.3-1
	C50.8,7,50.8,6.9,50.6,7c-0.4,0.1-0.8,0.3-1.1,0.6c-0.1,0.2-0.2,0.3-0.3,0.5c-0.3,0.7-0.6,1.5-0.8,2.3c-0.3,1.2-0.6,2.4-0.8,3.6
	c-0.2,1.1-0.4,2.2-0.5,3.4c-0.1,0.8-0.2,1.6-0.3,2.3c-0.1,0.9-0.2,1.8-0.2,2.7c0,0.6-0.1,1.2-0.1,1.8c0,0.7-0.1,1.4-0.1,2.1
	c0,0.2,0,0.2,0.2,0.2c0.3,0,0.5,0.1,0.8,0.2c0.1,0.1,0.2,0.1,0.3,0.1c0.3,0.1,0.6,0.1,0.8-0.1c0,0,0.1,0,0.1-0.1
	c0.3-0.2,0.7-0.2,1.1-0.1c0.2,0.1,0.3,0.2,0.5,0.3C50.3,26.9,50.4,27,50.5,27z M49.9,40.6c0.3-0.3,0.6-0.5,1-0.6
	c0.1,0,0.1-0.1,0.2-0.1c0.3-0.2,0.5-0.4,0.8-0.6c0.2-0.1,0.3-0.2,0.4-0.4c0.1-0.1,0.2-0.3,0.2-0.5c0-0.1,0-0.3-0.1-0.4
	c-0.1-0.1-0.2,0-0.3,0l0,0c-0.2,0.1-0.4,0.1-0.7,0.2c-0.2,0.1-0.2,0-0.3-0.2c0,0,0,0,0,0C51,38,51,38,51.1,37.9
	c0.3-0.1,0.6-0.2,0.8-0.3c0.1,0,0.1,0,0.2-0.1c0.2-0.2,0.4-0.5,0.6-0.7c0.1-0.1,0.1-0.3-0.1-0.4c0-0.1-0.1-0.1-0.2-0.1c0,0,0,0,0,0
	c-0.3,0.1-0.7,0.2-1,0.3c-0.2,0.1-0.3,0-0.3-0.2c-0.1-0.3-0.1-0.2,0.2-0.3c0.3-0.1,0.7-0.2,1-0.3c0.2-0.1,0.4-0.3,0.5-0.5
	c0.1-0.3,0.1-0.5,0-0.8c-0.1-0.2-0.2-0.3-0.4-0.2c-0.3,0.2-0.6,0.3-0.9,0.5c-0.3,0.1-0.3,0.1-0.4-0.1c0,0,0,0,0-0.1
	c0-0.1,0-0.1,0-0.2c0,0,0,0,0,0c0,0,0.1,0,0.1-0.1c0.4-0.2,0.7-0.4,1.1-0.6c0.3-0.2,0.5-0.4,0.6-0.7c0-0.1,0-0.3,0-0.4
	c-0.1-0.2-0.2-0.2-0.3-0.1c-0.4,0.4-0.8,0.8-1.2,1.1c-0.2,0.2-0.3,0.2-0.5,0c0,0,0,0,0,0c-0.1-0.1-0.1-0.1,0-0.2
	c0.3-0.3,0.6-0.6,1-0.9c0.5-0.5,0.8-1.1,0.9-1.8c0-0.1,0-0.2,0-0.3c0-0.1-0.1-0.1-0.2-0.2c-0.1,0-0.1,0.1-0.2,0.1
	c-0.3,0.5-0.5,0.9-0.8,1.4c-0.1,0.1-0.1,0.2-0.2,0.1c-0.1,0-0.1,0-0.2,0.1c-0.1,0.3-0.2,0.7-0.3,1c-0.3,0.8-0.4,1.6-0.5,2.5
	c0,0.4,0,0.8-0.1,1.2c0,0.1,0,0.2-0.1,0.3c0,0.1-0.2,0.2-0.3,0.1c-0.1,0-0.2-0.1-0.2-0.2c0-0.1,0-0.1,0-0.2c0-0.4,0-0.8,0.1-1.3
	c0-0.5,0.1-1.1,0.2-1.6c0.3-1.2,0.6-2.3,1.1-3.4c0,0,0-0.1,0.1-0.1c0-0.1,0-0.1-0.1-0.1c-0.2,0-0.5-0.2-0.6-0.3
	c-0.1-0.1-0.1-0.1-0.2,0c-0.2,0.2-0.3,0.3-0.6,0.4c-0.1,0-0.2,0.2-0.2,0.3c-0.1,0.6-0.2,1.2-0.3,1.8c-0.1,1.3-0.1,2.6-0.1,3.9
	c0,0.3,0,0.3-0.3,0.3c-0.2,0-0.2,0-0.2-0.2c0-0.9,0-1.9,0.1-2.8c0-0.4,0-0.9,0.1-1.3c0.1-0.6,0.1-1.1,0.3-1.7c0.1-0.2,0-0.5-0.2-0.6
	c-0.1,0-0.1,0.1-0.2,0.2c-0.2,0.2-0.3,0.3-0.6,0.3c-0.3,0.1-0.5,0-0.7-0.2c-0.1-0.1-0.2-0.2-0.2-0.4c0,0,0-0.1-0.1-0.1
	c0,0.2,0,0.4,0,0.5c0,1,0.1,2,0.2,3c0,0.5,0.1,0.9,0.1,1.4c0.1,0.6,0.2,1.3,0.3,1.9c0,0.3,0,0.3-0.3,0.3c-0.2,0-0.2,0-0.2-0.2
	c0-0.3-0.1-0.6-0.1-0.9c-0.1-0.5-0.2-1-0.2-1.6c-0.1-0.9-0.1-1.8-0.2-2.7c0-0.3,0-0.3-0.3-0.2c-0.2,0.1-0.2,0.1-0.3-0.1
	c-0.1-0.3-0.3-0.6-0.4-0.9c-0.1-0.2-0.2-0.4-0.3-0.6c0-0.1-0.1-0.2-0.2-0.2c-0.1,0-0.2,0.1-0.2,0.2c0,0.1,0,0.3,0,0.4
	c0,0.4,0.1,0.8,0.2,1.2c0.1,0.2,0.2,0.4,0.3,0.5c0.3,0.4,0.6,0.7,0.9,1.1c0,0,0.1,0.1,0.1,0.1c0.1,0.1,0.1,0.2,0,0.2
	c-0.1,0.1-0.1,0.1-0.2,0.1s-0.1,0-0.1,0c0,0,0,0-0.1-0.1c-0.4-0.5-0.8-0.9-1.1-1.4c0,0-0.1-0.1-0.1-0.1c0-0.1-0.1-0.2-0.2-0.1
	c-0.1,0-0.2,0.1-0.2,0.2c-0.1,0.2-0.1,0.3,0,0.5c0.1,0.4,0.3,0.8,0.6,1c0.4,0.3,0.8,0.6,1.2,0.9c0.2,0.2,0.2,0.2,0,0.4
	c-0.1,0.1-0.1,0.1-0.3,0c-0.4-0.3-0.8-0.7-1.3-1c-0.1-0.1-0.1-0.1-0.2-0.1c-0.1-0.1-0.2,0-0.2,0c0,0,0,0,0,0c0,0.1-0.1,0.1-0.1,0.2
	c-0.2,0.5,0,1,0.3,1.4c0.2,0.2,0.4,0.3,0.6,0.5c0.3,0.2,0.7,0.4,1,0.6c0.3,0.2,0.3,0.1,0.1,0.5c-0.1,0.1-0.1,0.1-0.3,0.1
	c-0.2-0.1-0.4-0.2-0.6-0.4c-0.4-0.2-0.8-0.5-1.1-0.7c0,0-0.1,0-0.2,0c-0.1,0.1-0.1,0.2-0.1,0.3c0,0.1,0,0.2,0.1,0.3
	c0.1,0.2,0.2,0.5,0.3,0.7c0,0.1,0.1,0.2,0.2,0.2c0.3,0.2,0.6,0.3,0.9,0.5c0.1,0,0.1,0.1,0.2,0.1c0.1,0,0.1,0.1,0.1,0.2c0,0,0,0,0,0
	c0,0,0,0.1-0.1,0.1c-0.1,0.2-0.1,0.2-0.3,0.1c-0.3-0.2-0.6-0.4-1-0.5c-0.1,0-0.2-0.1-0.2-0.1c-0.1-0.1-0.2,0-0.2,0.1
	c0,0.1,0,0.2,0,0.3c0,0.2,0.1,0.4,0.2,0.5c0.1,0.2,0.2,0.3,0.3,0.5c0.2,0.3,0.4,0.5,0.6,0.8c0.1,0.1,0.2,0.1,0.3,0.1
	c1-0.1,2.1-0.1,3.1,0C49,39.9,49.5,40.2,49.9,40.6L49.9,40.6z M36.8,40.6c0.2-0.3,0.4-0.5,0.7-0.6c0.3-0.1,0.5-0.2,0.8-0.2
	c0.8-0.1,1.6-0.1,2.4,0c0.2,0,0.4,0,0.6,0.1c0.1,0,0.1,0,0.2-0.1c0.2-0.4,0.6-0.7,0.8-1.1c0.1-0.2,0.2-0.3,0.3-0.5
	c0.1-0.2,0.1-0.4,0.1-0.5c0-0.2-0.1-0.2-0.3-0.2c-0.1,0-0.2,0.1-0.2,0.1c-0.3,0.2-0.7,0.4-1,0.5c-0.1,0.1-0.1,0.1-0.2-0.1
	c0-0.1-0.1-0.1-0.1-0.2c-0.1-0.1-0.1-0.2,0.1-0.2c0.2-0.1,0.5-0.3,0.7-0.4c0.2-0.1,0.4-0.2,0.5-0.4c0.2-0.3,0.4-0.6,0.5-1
	c0-0.1,0-0.2-0.1-0.3c-0.1-0.1-0.1-0.1-0.2,0c-0.1,0.1-0.1,0.1-0.2,0.2c-0.5,0.3-0.9,0.6-1.4,0.9c-0.3,0.2-0.3,0.2-0.5-0.1
	c-0.1-0.1-0.1-0.1,0.1-0.2c0.3-0.2,0.6-0.4,0.8-0.5c0.3-0.2,0.6-0.4,0.8-0.6c0.2-0.2,0.4-0.4,0.5-0.7c0.1-0.3,0.1-0.6-0.1-0.9
	c-0.1-0.2-0.2-0.2-0.4-0.1c-0.1,0-0.1,0.1-0.2,0.1c-0.4,0.3-0.7,0.6-1.1,0.9c-0.3,0.2-0.3,0.2-0.5-0.1c0,0,0-0.1,0-0.2c0,0,0,0,0,0
	c0,0,0.1-0.1,0.1-0.1c0.4-0.3,0.9-0.7,1.3-1c0.3-0.3,0.6-0.7,0.6-1.2c0-0.1,0-0.2-0.1-0.3c-0.1-0.1-0.2-0.1-0.3,0
	c-0.4,0.6-0.9,1-1.3,1.6c0,0.1-0.2,0.1-0.2,0.1c0,0,0,0,0,0c0,0-0.1-0.1-0.1-0.1c-0.1-0.1-0.1-0.1,0-0.3c0.3-0.4,0.7-0.9,1-1.3
	c0.1-0.1,0.1-0.1,0.1-0.2c0.1-0.3,0.2-0.6,0.2-0.9c0.1-0.3,0.1-0.6,0-0.9c0-0.1-0.1-0.2-0.2-0.2c-0.1,0-0.2,0-0.2,0.1
	c0,0.1,0,0.1-0.1,0.2c-0.2,0.5-0.4,1-0.6,1.4c-0.1,0.2-0.1,0.2-0.3,0.1c0,0-0.1,0-0.1,0c-0.1,0-0.1,0-0.2,0.1c0,0,0,0.1,0,0.1
	c0,0.5-0.1,1.1-0.1,1.6c0,0.5-0.1,1-0.1,1.5c-0.1,0.7-0.2,1.3-0.3,2c-0.1,0.3-0.1,0.3-0.4,0.3c-0.2,0-0.2,0-0.1-0.2
	c0-0.2,0.1-0.5,0.1-0.7c0.1-0.6,0.2-1.2,0.3-1.9c0.1-1.4,0.2-2.7,0.2-4.1c0-0.1,0-0.1,0-0.2c-0.1,0-0.1,0.1-0.1,0.1
	c0,0.1-0.1,0.2-0.2,0.3c-0.2,0.2-0.5,0.3-0.8,0.3c-0.2-0.1-0.4-0.1-0.5-0.3C38,30,38,30,37.9,29.9c0,0-0.1,0-0.1,0
	c-0.2,0.1-0.3,0.4-0.2,0.6c0.1,0.4,0.2,0.8,0.2,1.2c0.1,0.5,0.1,1.1,0.1,1.6c0.1,1,0.1,2,0.1,2.9c0,0.2,0,0.2-0.2,0.2
	c-0.3,0-0.3,0-0.3-0.3c0-1.3,0-2.7-0.2-4c-0.1-0.5-0.1-1-0.2-1.6c0-0.2-0.1-0.3-0.3-0.4c-0.1,0-0.2-0.1-0.3-0.2
	c-0.1-0.1-0.1-0.1-0.2-0.2c-0.1-0.1-0.1-0.1-0.3,0c-0.2,0.2-0.4,0.3-0.6,0.3c0,0-0.1,0-0.1,0c0,0.1,0,0.1,0.1,0.2
	c0.3,0.7,0.6,1.5,0.8,2.3c0.4,1.1,0.5,2.3,0.5,3.5c0,0.1,0,0.2,0,0.4c0,0.1,0,0.2,0,0.3c0,0.1-0.1,0.2-0.2,0.2c-0.1,0-0.2,0-0.3-0.2
	c0,0,0,0,0,0c0-0.1,0-0.1,0-0.2c0-0.2,0-0.5,0-0.7c0-0.3,0-0.7-0.1-1c-0.1-0.7-0.2-1.4-0.4-2.1c-0.1-0.3-0.2-0.7-0.3-1
	c0-0.1,0-0.1-0.1-0.1c-0.2,0-0.2,0-0.3-0.1c-0.3-0.4-0.5-0.9-0.8-1.3c0,0-0.1-0.1-0.1-0.1c-0.1-0.1-0.1-0.1-0.2,0
	c-0.1,0-0.1,0.1-0.1,0.2c0,0.1,0,0.2,0,0.3c0.1,0.6,0.4,1.2,0.9,1.7c0.3,0.3,0.7,0.6,1,1c0.1,0.1,0.1,0.1,0,0.3c0,0-0.1,0.1-0.1,0.1
	c0,0.1-0.1,0.1-0.2,0c0,0,0,0,0,0c0,0-0.1-0.1-0.1-0.1c-0.4-0.4-0.8-0.8-1.2-1.1c0,0-0.1-0.1-0.1-0.1c-0.1-0.1-0.1-0.1-0.2,0
	c-0.1,0.2-0.1,0.4-0.1,0.5c0.1,0.3,0.3,0.6,0.6,0.7c0.4,0.2,0.7,0.4,1.1,0.6c0.3,0.2,0.3,0.2,0.1,0.5c-0.1,0.1-0.1,0.1-0.2,0.1
	c-0.2-0.1-0.4-0.2-0.6-0.3c-0.2-0.1-0.4-0.2-0.6-0.3c-0.1-0.1-0.2,0-0.3,0.1c-0.3,0.5-0.1,1.2,0.5,1.5c0,0,0,0,0,0
	c0.2,0.1,0.4,0.2,0.6,0.2c0.2,0,0.3,0.1,0.5,0.1c0.2,0.1,0.2,0.1,0.2,0.3c0,0,0,0,0,0c-0.1,0.2-0.1,0.2-0.3,0.2
	c-0.3-0.1-0.7-0.2-1-0.3c-0.1,0-0.2,0-0.2,0.1c-0.1,0.1-0.1,0.3,0,0.4c0.2,0.2,0.3,0.5,0.5,0.7c0.1,0.1,0.1,0.1,0.2,0.1
	c0.2,0.1,0.5,0.2,0.7,0.3c0.3,0.1,0.3,0.1,0.2,0.4c-0.1,0.2-0.1,0.2-0.3,0.1c-0.3-0.1-0.5-0.2-0.8-0.3c-0.2-0.1-0.3,0-0.3,0.3
	c0,0.3,0.1,0.5,0.3,0.7c0.4,0.4,0.9,0.7,1.4,1C36.3,40.2,36.6,40.4,36.8,40.6L36.8,40.6z M56,34.9c-0.4-0.3-0.7-0.7-1-1
	c-0.1-0.1-0.2-0.2-0.3-0.3c-0.1-0.1-0.2-0.1-0.2,0.1c-0.1,0.3-0.2,0.6-0.1,0.9c0.1,0.4,0.3,0.8,0.6,1c0.3,0.3,0.7,0.6,1,0.8
	c0.3,0.2,0.3,0.2,0,0.5c0,0.1-0.1,0.1-0.2,0c0,0,0,0,0,0c-0.1-0.1-0.2-0.2-0.4-0.3c-0.3-0.3-0.7-0.5-1-0.8c-0.1-0.1-0.2-0.1-0.3,0.1
	c0,0.1,0,0.2,0,0.3c0.1,0.3,0.2,0.6,0.3,0.9c0,0.1,0.1,0.2,0.2,0.2c0.3,0.2,0.5,0.4,0.8,0.6c0.2,0.1,0.2,0.1,0.1,0.4
	c-0.1,0.2-0.1,0.2-0.3,0.1c-0.3-0.2-0.5-0.4-0.8-0.5c-0.1-0.1-0.1-0.1-0.2-0.1c-0.1,0-0.1,0-0.2,0.1c0,0.1,0,0.2,0,0.4
	c0,0.3,0.1,0.5,0.2,0.7c0.3,0.5,0.5,0.9,0.9,1.3c0.1,0.1,0.2,0.2,0.3,0.3c0.1,0.1,0.1,0.1,0.1,0c0,0,0.1-0.1,0.1-0.1
	c0.3-0.3,0.6-0.5,1-0.5c0.5-0.1,1-0.1,1.5,0c0.2,0,0.5,0.1,0.7,0.2c0.1,0,0.1,0,0.2,0c0.3-0.1,0.6-0.3,0.8-0.4
	c0.2-0.1,0.3-0.2,0.5-0.4c0.2-0.2,0.3-0.4,0.3-0.6c0-0.2,0-0.3-0.3-0.3c-0.2,0-0.4,0.1-0.6,0.1c-0.2,0-0.2,0-0.3-0.2
	c0,0,0-0.1,0-0.1c0-0.2,0-0.2,0.2-0.2c0.3,0,0.5-0.1,0.8-0.1c0.1,0,0.1,0,0.2-0.1c0.2-0.2,0.3-0.3,0.4-0.5c0.1-0.1,0.1-0.3,0.1-0.4
	c0-0.1-0.1-0.2-0.2-0.1c-0.3,0-0.5,0-0.8,0c-0.3,0-0.3,0-0.3-0.3c0-0.2,0-0.2,0.2-0.2c0.3,0,0.5,0,0.8,0c0.2,0,0.5-0.1,0.6-0.4
	c0.2-0.3,0.2-0.6,0.1-1c0-0.2-0.1-0.2-0.3-0.2c-0.3,0.1-0.6,0.2-0.8,0.3C60,35,60.1,35,59.9,34.7c-0.1-0.2-0.1-0.2,0.1-0.2
	c0.4-0.1,0.7-0.3,1.1-0.4c0.5-0.2,0.7-0.7,0.6-1.2c0-0.1-0.1-0.1-0.2-0.1c-0.1,0-0.1,0.1-0.2,0.1c-0.3,0.3-0.7,0.5-1,0.8
	c-0.3,0.2-0.4,0.2-0.5-0.1c0,0,0-0.1,0-0.1c0,0,0.1-0.1,0.1-0.1c0.4-0.3,0.8-0.7,1.3-1c0.1,0,0.1-0.1,0.2-0.1
	c0.3-0.4,0.5-0.8,0.5-1.3c0-0.1,0-0.2,0-0.3c0-0.1-0.1-0.1-0.1,0c0,0,0,0,0,0.1c-0.3,0.4-0.5,0.7-0.8,1.1c-0.2,0.3-0.2,0.3-0.4,0.1
	c-0.2-0.1-0.2-0.1,0-0.3c0.2-0.3,0.4-0.6,0.7-0.9c0-0.1,0.1-0.1,0.1-0.2c-0.2,0-0.4-0.1-0.5-0.2c-0.1-0.1-0.1,0-0.1,0
	c0,0,0,0.1,0,0.1c-0.3,0.8-0.7,1.6-0.9,2.5c-0.3,0.7-0.4,1.5-0.6,2.2c-0.1,0.6-0.1,1.2-0.1,1.7c0,0.2,0,0.5-0.1,0.7
	c0,0.2-0.1,0.3-0.3,0.3c-0.2,0-0.2-0.1-0.2-0.3c0-0.1,0-0.1,0-0.2c0-0.4,0.1-0.8,0.1-1.2c0-0.9,0.2-1.7,0.4-2.5c0.3-1,0.6-2,1-3
	c0-0.1,0.1-0.1,0-0.2c0,0,0,0,0,0c0,0,0,0-0.1,0c-0.3,0.1-0.7,0-0.8-0.2c0,0-0.1-0.1-0.1-0.1c-0.1,0.1-0.1,0.2-0.1,0.3
	c-0.2,1.2-0.4,2.5-0.4,3.7c-0.1,1-0.1,1.9-0.1,2.9c0,0.2,0,0.2-0.2,0.2c0,0-0.1,0-0.1,0c-0.1,0-0.2-0.1-0.2-0.2c0,0,0,0,0,0
	c0-0.1,0-0.2,0-0.3c0-1.2,0.1-2.3,0.2-3.5c0-0.7,0.1-1.3,0.2-2c0-0.2,0.1-0.5,0.1-0.8c-0.1,0-0.3,0-0.4,0c-0.1,0-0.3-0.1-0.4-0.3
	c-0.1-0.1-0.1-0.2-0.2-0.4c0,0.2,0,0.3,0,0.5c0,1.2,0.1,2.4,0.2,3.5c0,0.7,0.1,1.3,0.2,2c0,0.3,0.1,0.6,0.1,0.9c0,0.2,0,0.3-0.2,0.3
	c0,0,0,0,0,0c-0.2,0-0.2,0-0.2-0.2c-0.2-1-0.2-2-0.3-2.9c-0.1-0.8-0.1-1.5-0.1-2.3c0,0,0-0.1,0-0.1c0,0,0-0.1-0.1-0.1c0,0,0,0,0,0
	c0,0-0.1,0-0.1,0c-0.2,0.1-0.2,0.1-0.3-0.2c-0.1-0.4-0.3-0.8-0.4-1.2c0-0.1-0.1-0.3-0.1-0.4c0-0.1-0.1-0.1-0.2-0.1
	c-0.1,0-0.1,0.1-0.1,0.1c0,0.1,0,0.2,0,0.3c0,0.3,0,0.6,0,0.8c0,0.4,0.2,0.8,0.4,1.1c0.3,0.3,0.5,0.7,0.7,1c0.2,0.3,0.3,0.2-0.1,0.5
	c-0.1,0.1-0.1,0-0.2,0c0,0-0.1-0.1-0.1-0.1c-0.3-0.4-0.6-0.9-0.9-1.3c0-0.1-0.1-0.1-0.2-0.2c-0.1-0.1-0.2-0.1-0.2,0
	c0,0,0,0.1-0.1,0.1c0,0.1,0,0.3,0,0.5c0.1,0.4,0.2,0.7,0.5,1c0.3,0.3,0.6,0.6,1,0.9C56.4,34.6,56.4,34.6,56,34.9
	C56,34.9,56,34.9,56,34.9L56,34.9z M31.2,40.6c0.1-0.2,0.3-0.3,0.4-0.4c0,0,0.1-0.1,0.1-0.1c0.3-0.3,0.5-0.7,0.7-1.1
	c0.1-0.2,0.2-0.4,0.3-0.7c0-0.2,0-0.3,0-0.5c0-0.1-0.1-0.2-0.2-0.1c-0.1,0-0.1,0.1-0.2,0.1c-0.2,0.2-0.5,0.3-0.7,0.5
	c-0.3,0.2-0.3,0.2-0.5-0.1C31,38.1,31,38.1,31.2,38c0.2-0.2,0.4-0.3,0.7-0.5c0.3-0.1,0.5-0.4,0.5-0.7c0.1-0.2,0.2-0.5,0.2-0.7
	c0-0.1,0-0.2,0-0.3c0-0.1-0.1-0.1-0.2-0.1c-0.1,0-0.1,0.1-0.1,0.1c-0.4,0.3-0.8,0.6-1.2,0.9c0,0-0.1,0.1-0.1,0.1
	c-0.1,0.1-0.2,0.1-0.2,0c0,0,0,0,0,0c-0.2-0.2-0.2-0.3,0-0.5c0.3-0.2,0.6-0.5,0.9-0.7c0.2-0.2,0.4-0.4,0.6-0.6
	c0.3-0.4,0.3-0.9,0.1-1.4c-0.1-0.2-0.1-0.2-0.3-0.1c-0.1,0.1-0.1,0.1-0.2,0.2c-0.3,0.3-0.6,0.6-0.9,0.9c-0.2,0.2-0.2,0.3-0.4,0
	c-0.1-0.1-0.1-0.1,0-0.3c0.4-0.3,0.7-0.7,1.1-1c0.3-0.3,0.5-0.7,0.5-1.2c0-0.1,0-0.2-0.1-0.3c0-0.1-0.1-0.1-0.1-0.2
	c-0.1,0-0.1,0.1-0.2,0.1c-0.3,0.5-0.7,1-1,1.5c-0.2,0.3-0.2,0.3-0.4,0.1c-0.2-0.1-0.2-0.1-0.1-0.3c0.3-0.4,0.5-0.8,0.8-1.2
	c0.2-0.2,0.3-0.5,0.3-0.8c0,0,0-0.1,0-0.1c0.1-0.4,0.1-0.8,0.1-1.2c0-0.1,0-0.2-0.1-0.2c-0.1,0-0.2,0.1-0.2,0.2
	c-0.2,0.5-0.3,1-0.5,1.5c-0.1,0.3-0.1,0.2-0.3,0.2c-0.2-0.1-0.2,0-0.2,0.1c0,0.6-0.1,1.3-0.1,1.9c-0.1,1.1-0.2,2.3-0.3,3.4
	c0,0.2,0,0.2-0.2,0.2c-0.3,0-0.3-0.1-0.3-0.4c0.1-0.7,0.2-1.3,0.2-2c0.1-0.7,0.1-1.4,0.1-2.1c0-0.9,0.1-1.7,0.1-2.6c0,0,0-0.1,0-0.1
	c0,0,0,0,0,0c0,0,0,0.1-0.1,0.1c-0.1,0.3-0.5,0.5-0.8,0.5c0,0,0,0,0,0c-0.1,0-0.1,0-0.1,0.1c0,0.1,0.1,0.3,0.1,0.4
	c0.1,0.7,0.2,1.5,0.2,2.2c0.1,1.2,0.1,2.5,0.2,3.7c0,0.2,0,0.2-0.2,0.2c-0.3,0-0.3,0-0.3-0.3c0-1.4-0.1-2.8-0.2-4.2
	c-0.1-0.8-0.2-1.6-0.4-2.4c0-0.1,0-0.1-0.1-0.2c-0.1,0.2-0.3,0.3-0.5,0.4c-0.2,0.1-0.4,0-0.6,0c0,0.1,0,0.1,0.1,0.2
	c0.3,0.8,0.6,1.7,0.9,2.5c0.2,0.6,0.4,1.3,0.5,1.9c0.1,0.8,0.1,1.6,0.2,2.4c0,0.1,0,0.1,0,0.2c0,0.1-0.1,0.2-0.3,0.2
	c-0.1,0-0.2-0.1-0.2-0.3c0-0.4-0.1-0.8-0.1-1.2c0-0.7-0.1-1.3-0.3-1.9c-0.4-1.4-0.8-2.7-1.4-4c0,0,0,0,0-0.1c0,0-0.1-0.1-0.1,0
	c-0.2,0.1-0.4,0.2-0.6,0.3c0.3,0.4,0.6,0.8,0.9,1.2c-0.1,0.1-0.2,0.2-0.3,0.2c-0.1,0.1-0.1,0-0.2,0c-0.1-0.1-0.2-0.3-0.3-0.4
	c-0.2-0.3-0.4-0.5-0.6-0.8c0,0-0.1-0.1-0.1-0.1c-0.1,0-0.1,0.1-0.1,0.1c0,0.1,0,0.2,0,0.3c0.1,0.3,0.2,0.7,0.4,1
	c0.1,0.2,0.2,0.3,0.4,0.4c0.4,0.3,0.8,0.6,1.2,0.9c0.2,0.1,0.2,0.2,0,0.4c-0.2,0.2-0.1,0.2-0.3,0c-0.4-0.3-0.8-0.6-1.2-0.9
	c-0.1-0.1-0.2-0.1-0.2,0.1c-0.1,0.2,0,0.5,0.1,0.7c0.1,0.2,0.2,0.3,0.4,0.4c0.3,0.1,0.7,0.3,1,0.4c0.3,0.1,0.4,0.1,0.2,0.5
	c0,0.1-0.1,0.1-0.2,0.1c0,0-0.1,0-0.1,0c-0.3-0.1-0.6-0.2-0.9-0.3c-0.1-0.1-0.2,0-0.2,0.1c-0.1,0.3,0,0.7,0.1,1
	c0.1,0.2,0.3,0.3,0.6,0.4c0.2,0,0.5,0,0.7,0c0.3,0,0.3,0.1,0.3,0.4c0,0.2,0,0.2-0.2,0.1c-0.3,0-0.6,0-0.9,0c-0.2,0-0.2,0-0.2,0.2
	c0,0.1,0,0.3,0.1,0.4c0.1,0.1,0.2,0.2,0.3,0.3c0.1,0.1,0.3,0.2,0.4,0.2c0.2,0,0.4,0.1,0.6,0.1c0.2,0,0.3,0.1,0.2,0.3
	c0,0.2-0.1,0.2-0.3,0.2c-0.2,0-0.4-0.1-0.7-0.1c-0.1,0-0.2,0-0.2,0.2c0,0.1,0,0.1,0,0.2c0,0.2,0.2,0.5,0.4,0.6
	c0.1,0.1,0.3,0.2,0.5,0.3c0.2,0.1,0.5,0.2,0.7,0.4c0,0,0.1,0,0.2,0c0.2-0.1,0.4-0.1,0.6-0.2c0.5,0,0.9,0,1.4,0
	c0.3,0,0.6,0.1,0.9,0.3C30.9,40.2,31.1,40.4,31.2,40.6z M43.4,46.3h16.7c0.2,0,0.3,0,0.5,0c0.2,0,0.4-0.1,0.4-0.3
	c0.1-0.2,0.1-0.5,0-0.7c-0.1-0.1-0.2-0.2-0.3-0.2c-0.1,0-0.2,0-0.3,0c-11.3,0-22.7,0-34,0c-0.1,0-0.1,0-0.2,0
	c-0.3,0-0.5,0.2-0.6,0.4c0,0,0,0,0,0c0,0.2,0,0.4,0.1,0.5c0.1,0.1,0.2,0.2,0.3,0.2c0.1,0,0.2,0,0.4,0L43.4,46.3z M65.5,7.1
	C65.4,7.1,65.4,7.1,65.5,7.1c-0.2,0.2-0.4,0.3-0.5,0.5c-0.9,1.2-1.6,2.4-2.2,3.8c-1.1,2.8-2,5.6-2.6,8.5c-0.3,1.2-0.4,2.5-0.5,3.8
	c0,0.2,0,0.5,0,0.7c0,0.8,0,1.6-0.1,2.4c0,0.1,0,0.1,0,0.2c0.2,0.4,0.6,0.6,1,0.5c0.2,0,0.4-0.1,0.6-0.1c0.2,0,0.2,0,0.2-0.2V27
	c0-2,0.1-4,0.3-5.9c0.1-1.1,0.2-2.1,0.4-3.2c0.3-1.6,0.6-3.3,1.1-4.9c0.3-1.3,0.8-2.5,1.3-3.7c0.3-0.6,0.6-1.3,0.9-1.9
	C65.4,7.3,65.5,7.2,65.5,7.1z M21.3,7c0,0.1,0,0.2,0.1,0.3c0.4,0.9,0.8,1.7,1.2,2.6c0.5,1.4,1,2.9,1.3,4.3c0.5,1.9,0.8,3.9,1.1,5.8
	c0.1,1.2,0.2,2.3,0.3,3.5c0.1,1.1,0.1,2.1,0.1,3.2c0,0.1,0,0.3,0,0.4c0,0.1,0,0.1,0.1,0.1c0.3,0,0.5,0.1,0.8,0.2
	c0.2,0,0.5,0,0.6-0.2c0.1-0.1,0.1-0.1,0.2-0.2c0.1,0,0.1-0.1,0.1-0.2c0-0.4,0-0.9,0-1.3c0-0.7-0.1-1.4-0.1-2.1c0-0.5,0-0.9-0.1-1.4
	c-0.1-1.2-0.4-2.4-0.7-3.6c-0.5-2-1.1-3.9-1.8-5.8c-0.5-1.4-1.1-2.8-1.9-4c-0.3-0.5-0.6-0.9-0.9-1.3C21.5,7.2,21.4,7.1,21.3,7z
	 M39.9,44.5L39.9,44.5c0.7,0,1.3,0,2,0c0.2,0,0.4-0.1,0.5-0.3c0.2-0.3,0.3-0.7,0.4-1.1c0-0.4,0-0.9,0.1-1.3c0-0.2,0-0.4,0-0.6
	c0-0.2-0.1-0.4-0.3-0.5c-0.4-0.2-0.8-0.4-1.2-0.4c-1-0.1-2-0.1-3,0c-0.3,0-0.5,0.1-0.7,0.2c-0.3,0.1-0.4,0.3-0.4,0.6
	c0,0.9,0.1,1.9,0.2,2.8c0,0.1,0,0.3,0.1,0.4c0,0.1,0.1,0.1,0.2,0.1c0.1,0,0.1,0,0.2,0C38.6,44.5,39.2,44.5,39.9,44.5z M46.8,44.5
	L46.8,44.5c0.7,0,1.3,0,2,0c0.3,0,0.4,0,0.4-0.3c0.1-1,0.2-2,0.2-3c0-0.3-0.1-0.5-0.4-0.6c-0.3-0.1-0.7-0.2-1.1-0.2
	c-0.8-0.1-1.6-0.1-2.4,0c-0.5,0-1,0.2-1.5,0.4c-0.2,0.1-0.3,0.3-0.3,0.5c0,0.2,0,0.3,0,0.5c0,0.5,0.1,1,0.1,1.5c0,0.3,0.1,0.7,0.3,1
	c0.1,0.2,0.3,0.3,0.6,0.3C45.5,44.5,46.2,44.5,46.8,44.5L46.8,44.5z M33.9,44.5L33.9,44.5c0.6,0,1.2,0,1.7,0c0.2,0,0.4-0.1,0.5-0.3
	c0.2-0.3,0.3-0.6,0.3-1c0-0.4,0-0.8,0.1-1.2c0-0.2,0-0.5,0-0.7c0-0.2-0.1-0.4-0.3-0.5c-0.3-0.2-0.7-0.4-1.1-0.4
	c-0.8-0.1-1.7-0.1-2.5,0c-0.2,0-0.5,0.1-0.7,0.2c-0.2,0.1-0.3,0.3-0.3,0.5c0,0.1,0,0.2,0,0.3c0,0.8,0.1,1.6,0.1,2.4
	c0,0.2,0,0.4,0.1,0.5c0,0.2,0.1,0.2,0.3,0.2C32.7,44.5,33.3,44.5,33.9,44.5z M52.8,44.5L52.8,44.5c0.5,0,1.1,0,1.6,0
	c0.1,0,0.2,0,0.3,0c0.1,0,0.2-0.1,0.2-0.2c0,0,0-0.1,0-0.1c0-0.6,0.1-1.2,0.1-1.8c0-0.4,0-0.8,0.1-1.3c0-0.2-0.1-0.5-0.3-0.5
	c-0.1,0-0.2-0.1-0.3-0.1c-0.3-0.1-0.5-0.1-0.8-0.1c-0.6,0-1.2,0-1.8,0c-0.5,0-0.9,0.1-1.3,0.4c-0.3,0.1-0.4,0.4-0.4,0.7
	c0,0.2,0,0.4,0,0.5c0,0.5,0,0.9,0.1,1.4c0,0.3,0.1,0.7,0.3,1c0.1,0.2,0.3,0.3,0.5,0.3C51.6,44.5,52.2,44.5,52.8,44.5L52.8,44.5z
	 M46.6,30.8v-0.1c0-0.4,0-0.8,0-1.2c0-0.2,0-0.4,0.1-0.6c0.1-0.2,0.2-0.3,0.4-0.4c0.1-0.1,0.3,0,0.4,0.1c0,0,0,0.1,0,0.1
	c0,0.1,0,0.2,0,0.3c0,0.2,0.1,0.4,0.2,0.6c0,0.1,0.2,0.2,0.3,0.2c0,0,0.1,0,0.1-0.1c0.2-0.1,0.4-0.3,0.4-0.6c0-0.1,0-0.1,0.1-0.2
	c0-0.1,0.1-0.1,0.2-0.1c0.1,0,0.2,0,0.2,0.1c0,0.1,0.1,0.1,0.1,0.2c0,0.2,0.1,0.3,0.2,0.4c0.1,0.2,0.2,0.2,0.3,0.1
	c0.1-0.1,0.3-0.2,0.4-0.4c0.1-0.1,0.1-0.2,0.2-0.3c0.2-0.2,0.4-0.2,0.5,0c0.1,0.1,0.1,0.2,0.2,0.3c0.2,0.4,0.5,0.4,0.7,0
	c0.1-0.1,0.1-0.3,0.2-0.4c0-0.1,0.1-0.1,0.2-0.1c0,0,0,0,0,0c0.1,0,0.2,0.1,0.3,0.1c0,0,0.1,0,0.1,0c0,0,0,0,0,0
	c0.1-0.2,0.1-0.4,0.1-0.6c-0.1-0.3-0.3-0.6-0.4-0.8c-0.1-0.1-0.3-0.2-0.4-0.1c-0.2,0-0.3,0.1-0.5,0.1c-0.5,0.2-1,0-1.4-0.3
	c-0.3-0.3-0.7-0.3-1-0.1c0,0,0,0,0,0c0,0,0,0-0.1,0c-0.2,0.1-0.4,0.2-0.6,0.2c-0.3,0-0.6-0.1-0.9-0.3c-0.5-0.2-1-0.1-1.3,0.4
	c-0.1,0.1-0.1,0.2-0.1,0.4c0,0.6,0,1.1,0.2,1.7C46.2,29.9,46.4,30.3,46.6,30.8C46.5,30.8,46.6,30.8,46.6,30.8z M40.1,30.8
	c0,0,0.1-0.1,0.1-0.1c0.1-0.3,0.3-0.7,0.4-1c0.2-0.6,0.3-1.2,0.3-1.8c0-0.5-0.4-0.9-0.9-0.9c-0.2,0-0.3,0-0.5,0.1
	c-0.2,0.1-0.3,0.2-0.5,0.2c-0.4,0.1-0.8,0.1-1.1-0.2c0,0-0.1,0-0.1-0.1c-0.2-0.2-0.6-0.2-0.8,0c-0.1,0.1-0.2,0.1-0.3,0.2
	c-0.3,0.2-0.6,0.3-1,0.2c-0.3,0-0.5-0.1-0.8-0.2c-0.2-0.1-0.4,0-0.5,0.2c-0.1,0.2-0.2,0.3-0.3,0.5c-0.1,0.2-0.2,0.4-0.1,0.6
	c0,0.3,0.1,0.3,0.4,0.2c0.2-0.1,0.2-0.1,0.3,0.1c0.1,0.2,0.2,0.3,0.3,0.5c0.1,0.2,0.3,0.2,0.4,0.1c0,0,0.1-0.1,0.1-0.1
	c0.1-0.1,0.2-0.3,0.3-0.4c0.1-0.2,0.3-0.3,0.5,0c0.1,0.1,0.1,0.2,0.2,0.3c0.1,0.2,0.2,0.3,0.4,0.4c0.1,0.1,0.2,0.1,0.3-0.1
	c0-0.1,0.1-0.1,0.1-0.2c0-0.1,0.1-0.2,0.1-0.4c0-0.1,0.1-0.2,0.3-0.2c0.1,0,0.2,0.1,0.3,0.2c0,0.1,0.1,0.2,0.2,0.3
	c0.1,0.2,0.2,0.3,0.4,0.3c0.1,0.1,0.3,0,0.3-0.1c0,0,0,0,0,0c0.1-0.1,0.1-0.3,0.2-0.5c0-0.2,0-0.3,0.1-0.5c0-0.1,0.1-0.2,0.2-0.2
	c0,0,0,0,0,0c0.2,0,0.3,0.1,0.4,0.2c0.1,0.1,0.2,0.3,0.3,0.5c0,0.3,0.1,0.7,0,1C40.1,30.4,40.1,30.6,40.1,30.8z M29.1,44.5
	L29.1,44.5c0.4,0,0.7,0,1.1,0c0.2,0,0.2,0,0.3-0.2c0,0,0-0.1,0-0.1c0.1-0.4,0.2-0.8,0.2-1.2c0-0.4,0-0.7,0-1.1c0-0.3,0-0.5,0-0.8
	c0-0.1,0-0.2-0.1-0.3c-0.2-0.2-0.5-0.4-0.8-0.4c-0.3,0-0.7-0.1-1,0c-0.3,0-0.5,0.1-0.8,0.1c-0.2,0.1-0.4,0.3-0.4,0.5
	c0,0.1,0,0.2,0,0.3c0,0.5,0,1,0.1,1.5c0,0.5,0,1.1,0.1,1.6c0,0.2,0,0.2,0.2,0.2C28.5,44.5,28.8,44.5,29.1,44.5z M57.6,44.5
	L57.6,44.5c0.4,0,0.7,0,1.1,0c0.2,0,0.2,0,0.2-0.2c0-0.2,0-0.5,0.1-0.7c0-0.4,0-0.9,0.1-1.3c0-0.4,0-0.9,0-1.3
	c0-0.3-0.2-0.5-0.4-0.6c-0.1,0-0.2,0-0.2-0.1c-0.3,0-0.5-0.1-0.8-0.1c-0.4,0-0.7,0-1.1,0.2c-0.4,0.1-0.7,0.5-0.6,0.9
	c0,0.6,0.1,1.1,0.1,1.7c0,0.4,0.1,0.8,0.2,1.2c0.1,0.2,0.1,0.3,0.4,0.3C56.9,44.5,57.2,44.5,57.6,44.5L57.6,44.5z M56.6,30.9
	c0-0.1,0-0.1,0-0.2c0-0.4,0-0.8,0-1.2c0-0.3,0.2-0.6,0.5-0.7c0.2-0.1,0.5,0,0.5,0.3c0,0.1,0,0.2,0,0.3c0,0.1,0.1,0.3,0.1,0.4
	c0.1,0.1,0.2,0.2,0.4,0.2c0,0,0,0,0,0c0.2-0.1,0.4-0.2,0.5-0.5c0.1-0.1,0.1-0.3,0.3-0.2c0.2,0,0.2,0.1,0.3,0.3
	c0,0.1,0.1,0.3,0.2,0.4c0.1,0.1,0.2,0.2,0.3,0.1c0.1-0.1,0.3-0.2,0.4-0.3c0.1-0.1,0.2-0.2,0.2-0.3c0.2-0.2,0.3-0.2,0.4,0
	c0,0.1,0.1,0.1,0.1,0.2c0.1,0.1,0.1,0.2,0.2,0.3c0.1,0.1,0.2,0.1,0.4,0c0.3-0.2,0.5-0.6,0.5-1c-0.1-0.3-0.2-0.6-0.4-0.8
	c-0.1-0.1-0.2-0.2-0.4-0.1c-0.2,0-0.3,0.1-0.5,0.1c-0.4,0.1-0.9,0-1.2-0.3c-0.1-0.1-0.2-0.1-0.2-0.2c-0.2-0.1-0.4-0.1-0.6,0
	c-0.1,0-0.1,0.1-0.2,0.1c-0.2,0.1-0.4,0.2-0.6,0.1c-0.2,0-0.4-0.1-0.6-0.2c-0.1-0.1-0.2-0.1-0.3-0.2c-0.3-0.2-0.6-0.1-0.8,0.1
	C56.1,27.5,56,27.8,56,28c0,0.4,0,0.8,0.1,1.2C56.1,29.8,56.3,30.3,56.6,30.9C56.5,30.8,56.5,30.8,56.6,30.9L56.6,30.9z M30.2,30.9
	c0.1-0.1,0.1-0.1,0.1-0.2c0.1-0.2,0.2-0.5,0.2-0.7c0.2-0.6,0.3-1.2,0.3-1.9c0-0.2,0-0.3-0.1-0.4c-0.1-0.4-0.5-0.6-0.9-0.5
	c-0.1,0-0.2,0.1-0.3,0.1c-0.1,0.1-0.3,0.2-0.5,0.2c-0.3,0.1-0.7,0.1-1-0.1c0,0-0.1-0.1-0.1-0.1c-0.1-0.1-0.3-0.1-0.5,0
	c-0.1,0.1-0.2,0.2-0.3,0.3c-0.3,0.3-0.7,0.5-1.2,0.3c-0.2,0-0.3-0.1-0.5-0.1c-0.1,0-0.2,0-0.3,0.1c-0.2,0.2-0.3,0.5-0.4,0.8
	c-0.1,0.3,0,0.6,0.2,0.9c0.3,0.4,0.6,0.4,0.8,0c0-0.1,0.1-0.2,0.1-0.2c0.1-0.1,0.2-0.1,0.3-0.1c0,0,0,0,0,0c0,0,0.1,0.1,0.1,0.1
	c0.1,0.2,0.3,0.3,0.5,0.4c0.1,0.1,0.2,0,0.3-0.1c0,0,0,0,0,0c0.1-0.1,0.1-0.2,0.2-0.4c0-0.1,0-0.1,0.1-0.2c0.1-0.1,0.2-0.2,0.3-0.1
	c0,0,0.1,0,0.1,0.1c0,0.1,0.1,0.1,0.1,0.2c0.1,0.2,0.3,0.4,0.5,0.4c0.1,0.1,0.3,0,0.4-0.2c0.1-0.2,0.1-0.3,0.1-0.5
	c0-0.1,0-0.2,0-0.2c0-0.2,0.1-0.2,0.3-0.2c0.2,0,0.4,0.1,0.5,0.3c0.1,0.2,0.2,0.4,0.1,0.6C30.2,30,30.2,30.4,30.2,30.9L30.2,30.9z
	 M62.9,35.8c0-0.1,0-0.1,0-0.2c-0.1-0.3-0.1-0.5-0.2-0.8c0-0.1,0-0.1-0.1-0.2c0-0.1,0-0.3,0.2-0.3c0,0,0.1,0,0.1,0
	c0.2,0,0.2,0,0.1-0.1c-0.1-0.3-0.2-0.6-0.4-0.9c0-0.1-0.1-0.1-0.1-0.2c-0.1-0.1,0-0.3,0.1-0.3c0,0,0.1,0,0.2,0c0,0,0.1,0.1,0.2,0
	c0-0.1,0-0.1,0-0.2c-0.1-0.1-0.1-0.3-0.2-0.4c-0.1-0.1,0-0.3,0.1-0.3c0,0,0,0,0,0c0.1-0.1,0.1-0.1,0-0.2c-0.1-0.1-0.1-0.3-0.2-0.4
	c-0.1-0.1-0.1-0.3-0.1-0.4c0-0.1,0.1-0.2,0.2-0.2c0.1,0,0.2,0,0.3,0.1c0,0,0.1,0.1,0.1,0.2c0,0,0,0.1,0.1,0.1c0-0.1,0-0.2,0-0.2
	c0-0.2-0.1-0.4-0.2-0.5c-0.1-0.1-0.1-0.2-0.2-0.3c-0.1-0.2-0.1-0.5,0.1-0.7c0.2-0.2,0.5-0.2,0.7-0.1c0.2,0.1,0.3,0.3,0.3,0.5
	c0,0.2,0.1,0.3,0.3,0.2c0.3-0.1,0.4-0.3,0.4-0.6c0-0.3-0.2-0.5-0.3-0.7c-0.1-0.1-0.2-0.2-0.3-0.2c-0.4-0.2-0.9,0-1.1,0.3
	c-0.1,0.1-0.2,0.2-0.2,0.4c-0.1,0.3-0.3,0.6-0.4,0.9c-0.1,0.1,0,0.2,0,0.2c0.2,0.2,0.3,0.5,0.2,0.9c-0.1,0.4-0.2,0.8-0.4,1.1
	c-0.1,0.1-0.1,0.2,0,0.3c0.1,0.1,0.2,0.3,0.2,0.4c0.1,0.4,0,0.8-0.3,1.2c-0.1,0.1-0.2,0.3-0.1,0.4c0,0.1,0.1,0.2,0.1,0.3
	c0,0.2,0,0.3,0,0.5c0,0.4-0.1,0.7-0.4,1c-0.1,0.1-0.1,0.2-0.1,0.3c0.1,0.3,0.1,0.7-0.2,1c-0.1,0.1-0.2,0.2-0.3,0.3
	c-0.1,0.1-0.1,0.2,0,0.3c0.1,0.2,0.1,0.4,0.1,0.5c-0.1,0.4-0.3,0.8-0.6,1.1c0,0-0.1,0.1-0.1,0.1c0.1,0.1,0.3,0,0.4-0.1
	c0.5-0.3,1-0.8,1.4-1.2c0.2-0.2,0.3-0.4,0.4-0.7c0.2-0.5,0.2-1.2-0.2-1.7c0,0-0.1-0.1-0.1-0.1c-0.1-0.1,0-0.2,0-0.3
	c0.1-0.1,0.2-0.1,0.3-0.1C62.8,35.7,62.8,35.8,62.9,35.8z M23.6,30.9C23.6,30.9,23.6,30.9,23.6,30.9c0.1-0.1,0.1-0.2,0.2-0.2
	c0.1-0.1,0.2-0.2,0.3-0.1c0.1,0,0.2,0.1,0.2,0.3c0,0.1,0,0.2-0.1,0.3c-0.1,0.1-0.1,0.3-0.2,0.4s-0.1,0.1,0,0.3
	c0.1,0.1,0.1,0.2,0.1,0.3c-0.1,0.1-0.1,0.3-0.2,0.4c0,0.1,0,0.1,0,0.2c0,0,0.1,0,0.1,0c0.1,0,0.3,0,0.3,0.2c0,0.1,0,0.1,0,0.2
	c0,0.1-0.1,0.1-0.1,0.2c-0.2,0.3-0.3,0.6-0.4,0.8c0,0.1,0,0.1,0,0.2c0,0,0.1,0,0.1,0c0.1,0,0.2,0,0.3,0.1c0.1,0.1,0.1,0.2,0,0.3
	c0,0,0,0.1,0,0.1C24,35,24,35.2,23.9,35.4c0,0.1-0.1,0.3,0,0.4c0,0,0,0,0,0c0.2-0.1,0.3-0.1,0.4,0c0.1,0.1,0.1,0.2,0,0.4
	c-0.1,0.2-0.2,0.3-0.2,0.5c-0.2,0.6,0,1.2,0.3,1.7c0.4,0.6,1,1,1.5,1.4c0.1,0.1,0.2,0.1,0.3,0c-0.1-0.1-0.1-0.1-0.2-0.2
	c-0.3-0.2-0.5-0.6-0.5-1c0-0.1,0-0.3,0-0.4c0.1-0.3,0.1-0.3-0.1-0.5c-0.3-0.3-0.5-0.8-0.3-1.2c0-0.1,0-0.2-0.1-0.3
	c-0.4-0.5-0.5-1.2-0.3-1.7c0.1-0.1,0-0.3-0.1-0.4c-0.4-0.5-0.4-1.1-0.1-1.6c0.1-0.1,0.1-0.2,0-0.3c0-0.1-0.1-0.2-0.1-0.2
	c-0.2-0.4-0.3-0.7-0.3-1.1c0-0.2,0.1-0.4,0.2-0.6c0.1-0.1,0.1-0.2,0.1-0.3c-0.1-0.3-0.3-0.6-0.4-0.9c-0.1-0.2-0.2-0.4-0.4-0.5
	c-0.3-0.3-0.7-0.3-1.1-0.1c-0.3,0.2-0.6,0.6-0.5,1c0,0.2,0.2,0.4,0.4,0.4c0.2,0,0.3,0,0.3-0.2c0,0,0-0.1,0-0.1
	c0-0.2,0.2-0.4,0.5-0.5c0.2-0.1,0.5,0,0.6,0.2c0.1,0.2,0.2,0.5,0,0.7c0,0.1-0.1,0.1-0.1,0.2c-0.1,0.2-0.2,0.4-0.3,0.6
	C23.5,30.7,23.5,30.8,23.6,30.9z M27,43c0-0.4,0-0.8-0.1-1.3c-0.1-0.4-0.2-0.9-0.5-1.2c-0.1-0.1-0.3-0.2-0.4-0.2
	c-0.1,0-0.2,0-0.2,0.1c-0.1,0-0.2,0.1-0.2,0.2c0,0.1,0.1,0.2,0.2,0.2c0,0,0,0,0.1,0c0.1,0,0.2,0,0.2-0.1c0-0.1,0.1-0.2,0.2-0.2
	c0.1,0,0.3,0.1,0.3,0.2c0,0,0,0,0,0c0,0.1,0,0.3,0.1,0.4c0.1,0.5,0.1,0.9,0,1.4c-0.1,0.5-0.1,0.9-0.1,1.4c0,0.1,0,0.1,0,0.2
	c0,0.1,0,0.1,0.1,0.1c0,0,0,0,0,0c0,0,0.1,0,0.1,0c0.1,0,0.2,0,0.2-0.2c0-0.1,0-0.2,0-0.3C27.1,43.7,27.1,43.4,27,43z M59.7,43.3
	c0,0.3,0,0.6,0,0.8c0,0.1,0,0.1,0,0.2c0,0.2,0.1,0.3,0.4,0.2c0.1,0,0.1,0,0.1-0.1c0-0.3,0-0.7,0-1c-0.1-0.8-0.1-1.6,0-2.4
	c0-0.1,0-0.1,0-0.2c0-0.1,0.2-0.2,0.3-0.1c0,0,0.1,0.1,0.1,0.1c0,0,0,0.1,0.1,0.1c0.1,0.1,0.1,0.1,0.3,0c0.2-0.1,0.2-0.2,0.2-0.3
	c0,0,0,0,0-0.1c-0.1-0.2-0.3-0.2-0.5-0.2c-0.1,0-0.3,0.1-0.3,0.2c-0.3,0.3-0.4,0.8-0.5,1.2C59.7,42.3,59.7,42.8,59.7,43.3L59.7,43.3
	z M43.8,44.5C43.8,44.5,43.8,44.4,43.8,44.5c-0.3-0.6-0.4-1.1-0.4-1.7c0-0.2,0-0.5,0-0.7c0,0,0-0.1-0.1-0.1c0,0,0,0,0,0.1
	c0,0.2-0.1,0.5,0,0.7c0,0.6-0.1,1.1-0.4,1.6c0,0,0,0.1,0,0.1H43.8z M37.1,44.5C37,44.2,37,44,36.9,43.7c-0.1,0.3-0.2,0.5-0.3,0.8
	C36.8,44.5,36.9,44.5,37.1,44.5z M50.1,44.5c-0.1-0.3-0.2-0.5-0.3-0.8c0,0.3-0.1,0.5-0.1,0.8C49.8,44.5,50,44.5,50.1,44.5z
	 M27.2,40.8c0.1-0.1,0.1-0.2,0.1-0.3c0,0,0-0.1,0-0.1c-0.2-0.1-0.3-0.2-0.5-0.2C26.9,40.3,27.1,40.5,27.2,40.8z M59.5,40.8
	c0.1-0.2,0.2-0.4,0.4-0.6c-0.1,0-0.2,0-0.2,0.1C59.4,40.4,59.4,40.4,59.5,40.8C59.5,40.7,59.5,40.8,59.5,40.8z M31.2,43.9
	c-0.1,0.2-0.1,0.4-0.2,0.6c0.1,0,0.1,0,0.2,0c0,0,0.1,0,0.1-0.1C31.3,44.2,31.3,44,31.2,43.9z M55.7,44.5c-0.1-0.2-0.1-0.4-0.2-0.6
	c0,0.1-0.1,0.3-0.1,0.4C55.4,44.5,55.4,44.5,55.7,44.5z M52.3,29.4c-0.1,0.2-0.2,0.4-0.3,0.7C52.2,29.9,52.3,29.7,52.3,29.4z
	 M34.5,29.5c0,0.2,0.1,0.4,0.2,0.6C34.7,29.9,34.6,29.7,34.5,29.5z"/>
<path class="st1" d="M43.5,0h26.6c0.2,0,0.3,0,0.5,0c0.3,0.1,0.6,0.3,0.8,0.5c0.4,0.7,0.4,1.6,0,2.2c-0.2,0.4-0.6,0.6-1.1,0.6
	c-0.1,0-0.2,0-0.2,0H17c-0.2,0-0.4,0-0.6,0c-0.3,0-0.6-0.2-0.8-0.4c-0.5-0.7-0.6-1.7,0-2.4c0.2-0.3,0.6-0.5,1-0.5c0.1,0,0.2,0,0.3,0
	L43.5,0z M43.4,2.8L43.4,2.8c7.3,0,14.6,0,21.9,0c1.2,0,2.4,0,3.6,0c0.4,0,0.9,0,1.3,0c0.4,0,0.8-0.2,0.9-0.7
	c0.1-0.4,0.1-0.8-0.1-1.2c-0.1-0.2-0.3-0.4-0.6-0.4c-0.1,0-0.3,0-0.4,0c-17.8,0-35.6,0-53.4,0c-0.2,0-0.4,0.1-0.5,0.2
	c-0.4,0.5-0.4,1.3,0,1.8c0.1,0.2,0.3,0.2,0.5,0.2c0.2,0,0.4,0,0.6,0H43.4z"/>
<path class="st1" d="M43.4,3.7h26.1c0.2,0,0.3,0,0.5,0c0.2,0,0.4,0.2,0.4,0.3c0.2,0.4,0.2,0.9,0,1.3c-0.1,0.3-0.4,0.4-0.7,0.4
	c-4.5,0-8.9,0-13.4,0c-13,0-26.1,0-39.1,0c-0.2,0-0.3,0-0.5,0c-0.2,0-0.4-0.2-0.5-0.3c-0.2-0.4-0.2-0.9,0-1.3
	c0.1-0.3,0.4-0.4,0.7-0.4c0.1,0,0.2,0,0.3,0L43.4,3.7z M43.5,5.2h26.1c0.1,0,0.2,0,0.3,0c0.1,0,0.2-0.1,0.2-0.2
	c0.1-0.2,0.1-0.4,0-0.6c0-0.1-0.1-0.2-0.2-0.2c-0.1,0-0.3,0-0.4,0h-52c-0.1,0-0.2,0-0.2,0c-0.1,0-0.1,0-0.2,0
	c-0.1,0-0.2,0.1-0.2,0.2c-0.1,0.2-0.1,0.4,0,0.6c0,0.1,0.1,0.2,0.2,0.2c0.1,0,0.2,0,0.4,0L43.5,5.2z"/>
<rect x="0" y="74.3" class="st0" width="87" height="0.8"/>
<rect y="54.6" class="st0" width="87" height="0.8"/>
</svg>
